<svg width="520" height="600" viewBox="0 0 520 600" fill="none" xmlns="http://www.w3.org/2000/svg">
<path d="M0 165.2V434.698C0 445.559 5.7 455.608 15 461.09L245 595.889C254.3 601.37 265.7 601.37 275 595.889L505 461.09C514.3 455.608 520 445.559 520 434.698V165.2C520 154.339 514.3 144.29 505 138.809L275 4.11098C265.7 -1.37033 254.3 -1.37033 245 4.11098L15 138.809C5.7 144.29 0 154.339 0 165.2Z" fill="url(#paint0_linear_831_12999)"/>
<path d="M31 183.37V416.63C31 427.491 36.7 437.54 46 443.021L245 559.651C254.3 565.133 265.7 565.133 275 559.651L474 443.021C483.3 437.54 489 427.491 489 416.63V183.37C489 172.509 483.3 162.46 474 156.978L275 40.4498C265.7 34.9685 254.3 34.9685 245 40.4498L46 156.978C36.7 162.46 31 172.509 31 183.37Z" fill="url(#paint1_linear_831_12999)"/>
<path d="M520 220.927H0V393.08H520V220.927Z" fill="url(#paint2_linear_831_12999)"/>
<path d="M309.6 494.383C309 493.267 307.9 492.455 306.7 492.049C305.4 491.744 304.1 491.846 303 492.556C301.9 493.165 301.1 494.282 300.7 495.5C300.4 496.819 300.5 498.139 301.2 499.255C301.8 500.372 302.9 501.184 304.1 501.59C304.5 501.692 304.9 501.793 305.4 501.793C307.5 501.793 309.5 500.372 310.1 498.139C310.5 496.819 310.3 495.5 309.6 494.383Z" fill="white"/>
<path d="M297.3 477.635C296.2 477.026 294.9 476.823 293.6 477.127C292.3 477.432 291.3 478.244 290.7 479.462C290.1 480.578 289.9 481.898 290.2 483.218C290.5 484.537 291.3 485.552 292.5 486.161C293.2 486.567 294.1 486.872 294.9 486.872C295.3 486.872 295.7 486.77 296.2 486.669C297.5 486.364 298.5 485.552 299.1 484.334C299.7 483.218 299.9 481.898 299.6 480.578C299.2 479.259 298.4 478.244 297.3 477.635Z" fill="white"/>
<path d="M296.601 519.557C295.301 519.252 294.001 519.354 292.901 520.064C291.801 520.673 291.001 521.79 290.601 523.008C290.301 524.328 290.401 525.647 291.101 526.764C291.701 527.88 292.801 528.692 294.001 529.098C294.401 529.2 294.801 529.301 295.301 529.301C297.401 529.301 299.401 527.88 300.001 525.647C300.701 523.008 299.201 520.267 296.601 519.557ZM297.801 525.038C297.601 525.749 297.201 526.256 296.601 526.662C296.001 526.967 295.301 527.068 294.601 526.967C293.901 526.764 293.401 526.358 293.001 525.749C292.701 525.14 292.601 524.429 292.701 523.719C292.901 523.008 293.301 522.501 293.901 522.095C294.301 521.892 294.701 521.689 295.201 521.689C295.401 521.689 295.701 521.689 295.901 521.79C297.401 522.196 298.201 523.617 297.801 525.038Z" fill="white"/>
<path d="M223.6 529.301C221.5 529.301 219.5 527.88 218.9 525.647C218.6 524.328 218.7 523.008 219.4 521.891C220 520.775 221.1 519.963 222.3 519.557C223.6 519.252 224.9 519.354 226 520.064C227.1 520.673 227.9 521.79 228.3 523.008C228.6 524.328 228.5 525.647 227.8 526.764C227.1 527.88 226.1 528.692 224.9 529.098C224.4 529.2 224 529.301 223.6 529.301ZM223.6 521.689C223.4 521.689 223.1 521.689 222.9 521.79C222.2 521.993 221.7 522.399 221.3 523.008C221 523.617 220.9 524.328 221 525.038C221.2 525.749 221.6 526.256 222.2 526.662C222.8 526.967 223.5 527.068 224.2 526.967C225.6 526.561 226.4 525.14 226 523.719C225.8 523.008 225.4 522.501 224.8 522.095C224.5 521.79 224.1 521.689 223.6 521.689Z" fill="white"/>
<path d="M236.299 440.281C235.699 440.281 235.199 439.773 235.199 439.164C235.199 427.39 246.199 417.848 259.599 417.848C260.199 417.848 260.699 418.356 260.699 418.965C260.699 419.574 260.199 420.081 259.599 420.081C247.399 420.081 237.399 428.608 237.399 439.063C237.399 439.773 236.899 440.281 236.299 440.281Z" fill="white"/>
<path d="M213.5 501.793C212.7 501.793 211.8 501.59 211.1 501.083C210 500.474 209.2 499.357 208.8 498.139C208.5 496.819 208.6 495.5 209.3 494.383C209.9 493.267 211 492.455 212.2 492.049C213.5 491.744 214.8 491.846 215.9 492.556C217 493.165 217.8 494.282 218.2 495.5C218.5 496.819 218.4 498.139 217.7 499.255C217.1 500.372 216 501.184 214.8 501.59C214.3 501.692 213.9 501.793 213.5 501.793ZM213.5 494.18C213.3 494.18 213 494.18 212.8 494.282C212.1 494.485 211.6 494.891 211.2 495.5C210.9 496.109 210.8 496.819 210.9 497.53C211.1 498.24 211.5 498.748 212.1 499.154C212.7 499.458 213.4 499.56 214.1 499.458C215.5 499.052 216.3 497.631 215.9 496.21C215.7 495.5 215.3 494.992 214.7 494.586C214.4 494.282 213.9 494.18 213.5 494.18Z" fill="white"/>
<path d="M275.3 468.601C274.1 468.601 273 468.398 272 467.89C270.3 467.078 269.1 465.759 268.7 464.135C268.4 463.018 268.1 461.292 269 459.668C269.9 458.146 271.6 457.131 274.3 456.42C280.9 454.695 282.1 457.029 282.9 460.277C283.3 461.901 282.9 463.627 281.8 465.15C280.7 466.672 279.1 467.789 277.3 468.296C276.8 468.499 276 468.601 275.3 468.601ZM278.2 458.044C277.4 458.044 276.4 458.247 275 458.552C272.9 459.059 271.6 459.77 271.1 460.785C270.7 461.495 270.7 462.308 271 463.526C271.2 464.439 272 465.251 273.1 465.759C274.3 466.368 275.7 466.469 277 466.063C278.3 465.759 279.5 464.845 280.3 463.83C281 462.815 281.3 461.8 281 460.785C280.5 459.161 280.2 458.044 278.2 458.044Z" fill="white"/>
<path d="M243.6 468.601C242.9 468.601 242.2 468.499 241.5 468.296C239.6 467.789 238 466.672 237 465.15C235.9 463.627 235.5 461.8 235.9 460.277C236.7 457.029 237.9 454.695 244.5 456.42C247.2 457.131 249 458.146 249.8 459.668C250.7 461.292 250.4 463.018 250.1 464.135C249.7 465.759 248.5 467.078 246.8 467.89C245.9 468.296 244.7 468.601 243.6 468.601ZM240.7 458.044C238.7 458.044 238.4 459.161 238 460.785C237.8 461.698 238 462.815 238.7 463.83C239.5 464.947 240.7 465.759 242 466.063C243.3 466.469 244.7 466.266 245.9 465.759C247 465.251 247.7 464.439 248 463.526C248.3 462.308 248.3 461.495 247.9 460.785C247.4 459.871 246 459.161 244 458.552C242.6 458.247 241.5 458.044 240.7 458.044Z" fill="white"/>
<path d="M279.1 520.876C276.5 520.267 273.9 521.891 273.3 524.531C272.7 527.17 274.3 529.809 276.9 530.418C277.3 530.519 277.6 530.519 278 530.519C280.2 530.519 282.2 528.997 282.7 526.662C283.3 524.125 281.7 521.485 279.1 520.876Z" fill="white"/>
<path d="M274.401 507.478V493.774C274.401 493.47 274.201 493.064 274.001 492.861L264.601 485.349C264.301 485.045 263.801 485.045 263.401 485.248C263.001 485.451 262.801 485.857 262.801 486.263V514.279C262.801 514.583 263.001 514.989 263.201 515.192L273.601 523.516C273.901 522.805 274.401 522.196 275.001 521.688L265.001 513.67V488.496L272.101 494.18V508.087C272.101 508.493 272.301 508.797 272.601 509L290.901 522.399C291.201 521.688 291.701 521.079 292.201 520.572L274.401 507.478Z" fill="white"/>
<path d="M243.199 521.383C242.099 520.774 240.799 520.571 239.499 520.876C236.899 521.586 235.399 524.327 236.099 526.865C236.699 529.098 238.599 530.519 240.799 530.519C241.199 530.519 241.599 530.417 242.099 530.316C243.399 530.011 244.399 529.199 244.999 527.981C245.599 526.865 245.799 525.545 245.499 524.225C245.199 523.109 244.399 522.094 243.199 521.383Z" fill="white"/>
<path d="M225.3 477.127C224 476.823 222.7 476.924 221.6 477.635C220.5 478.244 219.7 479.36 219.3 480.578C219 481.898 219.1 483.218 219.8 484.334C220.4 485.451 221.5 486.263 222.7 486.669C223.1 486.77 223.5 486.872 224 486.872C226.1 486.872 228.1 485.451 228.7 483.218C229 481.898 228.9 480.578 228.2 479.462C227.6 478.244 226.6 477.432 225.3 477.127Z" fill="white"/>
<path d="M255.4 485.248C255 485.045 254.6 485.146 254.2 485.349L244.8 492.861C244.5 493.064 244.4 493.368 244.4 493.774V507.376L226.5 520.369C227.1 520.876 227.6 521.485 227.9 522.094L246.1 508.899C246.4 508.696 246.6 508.29 246.6 507.985V494.282L253.7 488.598V513.771L243.7 521.79C244.3 522.297 244.8 522.906 245.1 523.516L255.5 515.192C255.8 514.989 255.9 514.685 255.9 514.278V486.263C256 485.857 255.8 485.451 255.4 485.248Z" fill="white"/>
<path d="M301.2 499.256C301.1 499.154 301.1 498.951 301 498.849L291.5 506.564L281.8 499.966L281 494.891L291.9 485.755C291.3 485.248 290.8 484.74 290.5 484.03L280.6 492.252L278.6 478.447C278.5 477.33 282.1 472.966 284.2 470.326C287.6 466.266 289.6 463.729 289.8 462.003C289.9 459.973 288.2 457.537 286.6 455.202C285.5 453.679 284.3 451.852 284.2 451.04C286.8 447.183 288.2 442.818 288.2 438.251C288.2 424.446 275.3 413.179 259.4 413.179C243.5 413.179 230.6 424.446 230.6 438.251C230.6 442.717 232 447.183 234.6 451.04C234.5 451.954 233.3 453.679 232.2 455.202C230.6 457.537 228.9 459.973 229 462.003C229.1 463.729 231.2 466.266 234.6 470.326C236.8 472.966 240.4 477.33 240.2 478.447L238.2 492.252L228.3 484.03C228 484.74 227.5 485.349 226.9 485.755L237.8 494.891L237 500.068L227.3 506.665L217.8 498.951C217.7 499.053 217.7 499.256 217.6 499.357C217.3 499.865 216.9 500.372 216.4 500.778L226.5 509C226.7 509.203 227 509.203 227.2 509.203C227.4 509.203 227.6 509.102 227.8 509L238.6 501.692C238.9 501.489 239 501.184 239.1 500.88L242.3 478.853C242.7 476.823 240.2 473.778 236.2 468.905C234.1 466.368 231.2 462.916 231.2 461.901C231.1 460.683 232.7 458.349 234 456.522C235 454.999 235.9 453.679 236.4 452.563C236.5 452.563 236.6 452.563 236.7 452.563C236.8 452.563 236.8 452.563 236.9 452.563C236.9 452.563 238 452.36 239.6 452.461C240.2 452.461 240.8 452.055 240.8 451.446C240.8 450.837 240.4 450.228 239.8 450.228C238.4 450.127 237.3 450.228 236.8 450.228C236.8 450.127 236.7 450.025 236.7 450.025C234.2 446.473 232.8 442.412 232.8 438.251C232.8 425.664 244.7 415.412 259.4 415.412C274.1 415.412 286 425.664 286 438.251C286 442.412 284.7 446.473 282.1 450.025C282 450.127 282 450.127 282 450.228C281.5 450.127 280.5 450.127 279 450.228C278.4 450.228 277.9 450.837 278 451.446C278 452.055 278.6 452.563 279.2 452.461C280.8 452.36 281.9 452.563 281.9 452.563C282 452.563 282 452.563 282.1 452.563C282.2 452.563 282.3 452.563 282.4 452.563C282.9 453.781 283.8 455.101 284.8 456.522C286.1 458.349 287.7 460.683 287.6 461.901C287.5 462.916 284.7 466.368 282.6 468.905C278.6 473.778 276.1 476.823 276.5 478.853L279.7 500.981C279.7 501.286 279.9 501.59 280.2 501.793L291 509.102C291.2 509.203 291.4 509.305 291.6 509.305C291.8 509.305 292.1 509.203 292.3 509.102L302.4 500.88C302 500.271 301.6 499.865 301.2 499.256Z" fill="white"/>
<path d="M90.1008 361.208C80.5008 361.208 72.2008 359.482 65.2008 356.133C58.2008 352.783 52.4008 348.215 47.8008 342.632C43.2008 337.05 39.8008 331.061 37.6008 324.564C35.4008 318.17 34.3008 311.978 34.3008 305.989V302.741C34.3008 296.143 35.5008 289.646 37.8008 283.049C40.1008 276.552 43.6008 270.563 48.3008 265.285C53.0008 260.007 58.8008 255.744 65.8008 252.597C72.8008 249.45 80.9008 247.826 90.2008 247.826C99.5008 247.826 107.601 249.45 114.601 252.597C121.601 255.744 127.501 260.007 132.101 265.285C136.801 270.563 140.301 276.451 142.601 283.049C144.901 289.545 146.101 296.143 146.101 302.741V305.989C146.101 311.978 145.001 318.17 142.701 324.564C140.401 330.959 137.001 337.05 132.401 342.632C127.801 348.215 122.001 352.682 115.001 356.133C107.901 359.482 99.6008 361.208 90.1008 361.208ZM90.1008 341.82C95.5008 341.82 100.401 340.805 104.701 338.877C109.001 336.948 112.701 334.207 115.801 330.756C118.801 327.305 121.201 323.346 122.801 318.88C124.401 314.414 125.201 309.643 125.201 304.669C125.201 299.391 124.401 294.417 122.701 289.951C121.101 285.485 118.701 281.526 115.701 278.075C112.701 274.624 109.001 272.086 104.701 270.157C100.401 268.33 95.5008 267.315 90.1008 267.315C84.8008 267.315 80.0008 268.229 75.6008 270.157C71.3008 271.985 67.6008 274.624 64.5008 278.075C61.4008 281.526 59.1008 285.383 57.5008 289.951C55.9008 294.417 55.1008 299.391 55.1008 304.669C55.1008 309.643 55.9008 314.414 57.5008 318.88C59.1008 323.346 61.4008 327.305 64.5008 330.756C67.5008 334.207 71.2008 336.948 75.6008 338.877C79.9008 340.805 84.8008 341.82 90.1008 341.82Z" fill="white"/>
<path d="M201.101 361.208C191.801 361.208 183.901 359.685 177.501 356.64C171.001 353.595 166.101 349.433 162.801 344.054C159.501 338.674 157.801 332.685 157.801 325.884H178.001C178.001 328.726 178.801 331.467 180.301 334.208C181.801 336.948 184.301 339.08 187.801 340.805C191.201 342.43 195.701 343.343 201.201 343.343C206.301 343.343 210.601 342.633 213.901 341.11C217.201 339.689 219.701 337.659 221.401 335.324C223.101 332.888 223.901 330.147 223.901 327.204C223.901 323.448 222.301 320.504 219.101 318.17C215.901 315.835 210.901 314.414 204.201 313.805L194.901 312.891C184.701 311.978 176.701 308.831 170.601 303.248C164.601 297.666 161.501 290.357 161.501 281.222C161.501 274.319 163.101 268.432 166.301 263.458C169.501 258.484 174.001 254.729 179.701 251.988C185.501 249.247 192.201 247.928 199.901 247.928C207.901 247.928 214.901 249.349 220.701 252.191C226.501 255.033 231.001 258.992 234.201 264.169C237.301 269.345 238.901 275.334 238.901 282.338H218.701C218.701 279.496 218.001 276.857 216.701 274.319C215.301 271.782 213.301 269.751 210.501 268.229C207.701 266.706 204.201 265.894 199.901 265.894C195.801 265.894 192.501 266.605 189.801 268.026C187.101 269.447 185.101 271.274 183.801 273.609C182.401 275.943 181.801 278.481 181.801 281.222C181.801 284.571 183.001 287.515 185.401 289.951C187.801 292.489 191.601 293.91 196.901 294.316L206.001 295.229C213.601 295.838 220.301 297.463 225.901 300.102C231.601 302.741 236.001 306.294 239.201 310.861C242.401 315.328 244.001 320.809 244.001 327.204C244.001 334.005 242.301 339.892 238.801 345.069C235.301 350.245 230.401 354.204 223.901 357.046C217.601 359.787 209.901 361.208 201.101 361.208Z" fill="white"/>
<path d="M262.9 358.467V250.973H291L317.5 315.124H320.1L346.5 250.973H375.1V358.467H354.7V266.808L357.3 267.112L328.7 336.542H307.7L279 267.011L281.8 266.706V358.366H262.9V358.467Z" fill="white"/>
<path d="M401.201 358.467V250.262H421.801V358.467H401.201ZM415.701 322.534V305.583H442.701C446.501 305.583 449.701 304.771 452.501 303.248C455.301 301.726 457.401 299.492 458.901 296.65C460.401 293.808 461.101 290.56 461.101 286.906C461.101 283.15 460.401 279.902 458.901 277.161C457.401 274.319 455.301 272.187 452.501 270.563C449.701 268.939 446.501 268.127 442.701 268.127H415.701V250.262H440.501C449.001 250.262 456.401 251.582 462.601 254.119C468.801 256.759 473.601 260.616 477.001 265.793C480.401 270.969 482.101 277.466 482.101 285.485V287.819C482.101 295.635 480.401 302.132 477.001 307.308C473.601 312.485 468.801 316.241 462.601 318.779C456.401 321.316 449.101 322.534 440.601 322.534H415.701ZM465.801 358.467L433.501 311.775H456.601L490.101 358.467H465.801Z" fill="white"/>
<path fill-rule="evenodd" clip-rule="evenodd" d="M166.5 159.313C166.5 165.81 167 172.205 167.9 178.599L169.9 192.303C168.1 192.607 166.4 192.81 164.5 192.81C162.6 192.81 160.9 192.607 159.1 192.303L161.1 178.599C162 172.205 162.5 165.81 162.5 159.313V130.486C163.2 130.486 163.9 130.384 164.6 130.384C165.3 130.384 166 130.384 166.7 130.486V159.313H166.5ZM145.8 186.517L153.8 170.682C154.4 169.464 154.7 168.144 154.7 166.825V132.008C142.5 136.17 133.6 147.843 133.6 161.648C133.7 171.799 138.5 180.833 145.8 186.517ZM174.2 166.825C174.2 168.144 174.5 169.464 175.1 170.682L183.1 186.517C190.5 180.833 195.2 171.799 195.2 161.648C195.2 147.843 186.4 136.17 174.1 132.008V166.825H174.2Z" fill="white"/>
<path d="M385 151.498V150.787H388.4V151.498H385ZM386.3 155.253V151.295H387V155.253H386.3ZM389.1 155.253V150.889H389.8V155.253H389.1ZM391.2 155.253L389.3 150.889H390.1L391.4 154.137L392.7 150.889H393.5L391.6 155.253H391.2ZM392.9 155.253V150.889H393.6V155.253H392.9Z" fill="white"/>
<path d="M230.5 142.565C219 142.565 210.6 150.888 210.6 162.46V162.866C210.6 174.539 218.8 182.761 230.5 182.761C242.2 182.761 250.3 174.539 250.3 162.765V162.359C250.3 150.685 242.1 142.565 230.5 142.565ZM218.7 162.46C218.7 154.137 223.2 148.96 230.5 148.96C237.8 148.96 242.2 154.238 242.2 162.46V162.866C242.2 171.088 237.6 176.468 230.6 176.468C223.6 176.468 218.7 170.885 218.7 162.968V162.46Z" fill="white"/>
<path d="M286.399 141.042C285.099 140.636 284.099 140.535 282.499 140.535C276.299 140.535 272.699 144.087 272.699 150.381V153.527H261.899V150.076C261.899 146.93 263.799 146.219 265.299 146.219C266.499 146.219 267.499 146.524 268.099 146.727C268.199 146.727 268.299 146.727 268.399 146.727C268.499 146.625 268.499 146.625 268.499 146.524V141.448C268.499 141.347 268.399 141.245 268.299 141.144C266.999 140.738 265.999 140.636 264.499 140.636C258.199 140.636 254.699 144.087 254.699 150.482V182.05C254.699 182.254 254.799 182.355 254.999 182.355H261.499C261.699 182.355 261.799 182.254 261.799 182.05V158.907H272.599V181.847C272.599 182.051 272.699 182.152 272.899 182.152H279.399C279.599 182.152 279.699 182.051 279.699 181.847V158.907H285.799C285.999 158.907 286.099 158.806 286.099 158.603V153.73C286.099 153.527 285.999 153.426 285.799 153.426H279.699V150.076C279.699 146.93 281.599 146.219 283.099 146.219C284.399 146.219 285.399 146.524 285.999 146.727C286.099 146.727 286.199 146.727 286.299 146.727C286.399 146.727 286.399 146.625 286.399 146.524V141.448C286.599 141.245 286.599 141.144 286.399 141.042Z" fill="white"/>
<path d="M305.7 158.704C299.1 157.791 297.9 156.268 297.9 153.324C297.9 150.381 300.3 148.554 304.3 148.554C308.7 148.554 310.8 150.178 311.5 154.035C311.5 154.137 311.6 154.238 311.8 154.238H318.4C318.5 154.238 318.6 154.238 318.6 154.137C318.7 154.035 318.7 154.035 318.7 153.934C317.9 146.422 313 142.463 304.3 142.463C296.2 142.463 290.5 147.133 290.5 153.832C290.5 160.531 294.4 164.084 304.4 165.404C311.1 166.52 312.2 168.043 312.2 170.986C312.2 174.336 309.4 176.569 305.2 176.569C298.7 176.569 297.3 173.321 296.9 169.768C296.9 169.667 296.8 169.464 296.6 169.464H289.7C289.6 169.464 289.5 169.464 289.5 169.565C289.5 169.667 289.4 169.667 289.4 169.768C289.8 175.554 292.9 182.558 305.2 182.558C313.6 182.558 319.7 177.381 319.7 170.377C319.8 162.358 314.4 159.922 305.7 158.704Z" fill="white"/>
<path d="M347.599 156.268C345.199 154.035 341.899 152.817 338.099 152.817C329.599 152.817 323.699 158.907 323.699 167.637V168.043C323.699 176.772 329.599 182.66 338.299 182.66C345.799 182.66 350.699 179.208 351.599 173.22C351.599 173.118 351.599 173.017 351.499 173.017C351.399 172.915 351.399 172.915 351.299 172.915H344.999C344.899 172.915 344.699 173.017 344.699 173.118C344.199 175.859 342.099 177.178 338.499 177.178C333.999 177.178 331.299 174.438 330.999 169.464H351.399C351.599 169.464 351.699 169.362 351.699 169.159V167.231C351.699 162.561 350.299 158.806 347.599 156.268ZM331.199 164.592C331.899 160.531 334.399 158.197 338.099 158.197C342.099 158.197 344.299 160.328 344.599 164.592H331.199Z" fill="white"/>
<path d="M384.099 171.19C383.999 171.088 383.999 171.088 383.899 171.088H377.899C377.699 171.088 377.599 171.19 377.599 171.393C377.299 174.844 374.699 177.178 371.099 177.178C366.299 177.178 363.599 173.829 363.599 168.144V167.738C363.599 162.257 366.499 158.806 370.999 158.806C374.599 158.806 376.699 160.531 377.199 163.881C377.199 163.983 377.299 164.186 377.499 164.186H383.799C383.899 164.186 383.999 164.186 383.999 164.084C384.099 163.983 384.099 163.983 384.099 163.881C383.399 156.979 378.599 153.02 370.899 153.02C362.399 153.02 356.299 159.313 356.299 167.941V168.347C356.299 177.077 362.199 182.964 370.899 182.964C378.499 182.964 383.799 178.498 384.299 171.596C384.199 171.393 384.199 171.291 384.099 171.19Z" fill="white"/>
<defs>
<linearGradient id="paint0_linear_831_12999" x1="259.999" y1="597.252" x2="259.999" y2="84.2309" gradientUnits="userSpaceOnUse">
<stop stop-color="#3634A3"/>
<stop offset="1" stop-color="#4C52DD"/>
</linearGradient>
<linearGradient id="paint1_linear_831_12999" x1="259.999" y1="559.536" x2="259.999" y2="115.602" gradientUnits="userSpaceOnUse">
<stop stop-color="#4C52DD"/>
<stop offset="1" stop-color="#3634A3"/>
</linearGradient>
<linearGradient id="paint2_linear_831_12999" x1="260" y1="183.977" x2="260" y2="467.054" gradientUnits="userSpaceOnUse">
<stop stop-color="#4C52DD"/>
<stop offset="0.7661" stop-color="#3634A3"/>
</linearGradient>
</defs>
</svg>
