<svg width="520" height="600" viewBox="0 0 520 600" fill="none" xmlns="http://www.w3.org/2000/svg">
<g clip-path="url(#clip0_1473_34152)">
<mask id="mask0_1473_34152" style="mask-type:luminance" maskUnits="userSpaceOnUse" x="0" y="0" width="520" height="600">
<path d="M520 0H0V600H520V0Z" fill="white"/>
</mask>
<g mask="url(#mask0_1473_34152)">
<mask id="mask1_1473_34152" style="mask-type:luminance" maskUnits="userSpaceOnUse" x="0" y="0" width="520" height="600">
<path d="M520 0H0V600H520V0Z" fill="white"/>
</mask>
<g mask="url(#mask1_1473_34152)">
<path d="M366.832 392.041H490.501" stroke="#FFDF00" stroke-width="2" stroke-miterlimit="10"/>
<path d="M33.416 392.041H157.085" stroke="#FFDF00" stroke-width="2" stroke-miterlimit="10"/>
<mask id="mask2_1473_34152" style="mask-type:luminance" maskUnits="userSpaceOnUse" x="0" y="0" width="520" height="600">
<path d="M520 0H0V600H520V0Z" fill="white"/>
</mask>
<g mask="url(#mask2_1473_34152)">
<path d="M-1 166.75V432.25C-1 442.95 4.7 452.85 14 458.25L244 591.05C253.3 596.45 264.7 596.45 274 591.05L504 458.25C513.3 452.85 519 442.95 519 432.25V166.75C519 156.05 513.3 146.15 504 140.75L274 8.05C264.7 2.65 253.3 2.65 244 8.05L14 140.75C4.7 146.15 -1 156.05 -1 166.75Z" fill="#1C1822"/>
<path d="M-1 166.75V432.25C-1 442.95 4.7 452.85 14 458.25L244 591.05C253.3 596.45 264.7 596.45 274 591.05L504 458.25C513.3 452.85 519 442.95 519 432.25V166.75C519 156.05 513.3 146.15 504 140.75L274 8.05C264.7 2.65 253.3 2.65 244 8.05L14 140.75C4.7 146.15 -1 156.05 -1 166.75Z" fill="url(#paint0_linear_1473_34152)"/>
<path d="M30 184.651V414.451C30 425.151 35.7 435.051 45 440.451L244 555.352C253.3 560.752 264.7 560.752 274 555.352L473 440.451C482.3 435.051 488 425.151 488 414.451V184.651C488 173.951 482.3 164.051 473 158.651L274 43.8508C264.7 38.4508 253.3 38.4508 244 43.8508L45 158.651C35.7 164.051 30 173.951 30 184.651Z" fill="#1C1822"/>
<path d="M30 184.651V414.451C30 425.151 35.7 435.051 45 440.451L244 555.352C253.3 560.752 264.7 560.752 274 555.352L473 440.451C482.3 435.051 488 425.151 488 414.451V184.651C488 173.951 482.3 164.051 473 158.651L274 43.8508C264.7 38.4508 253.3 38.4508 244 43.8508L45 158.651C35.7 164.051 30 173.951 30 184.651Z" fill="url(#paint1_linear_1473_34152)"/>
<mask id="mask3_1473_34152" style="mask-type:luminance" maskUnits="userSpaceOnUse" x="203" y="412" width="110" height="120">
<path d="M312.804 412.467H203.742V531.633H312.804V412.467Z" fill="white"/>
</mask>
<g mask="url(#mask3_1473_34152)">
<path d="M213.556 433.96C225.327 430.69 249.432 419.393 258.274 415.16C267.12 419.393 291.226 430.69 302.997 433.96C302.997 433.945 302.997 433.929 302.997 433.914C302.997 433.044 303.229 432.225 303.632 431.514C294.388 428.945 275.414 420.546 258.832 412.59C258.48 412.42 258.072 412.42 257.721 412.59C241.134 420.546 222.159 428.945 212.92 431.514C213.323 432.225 213.556 433.044 213.556 433.914C213.556 433.929 213.556 433.945 213.556 433.96Z" fill="white"/>
<path d="M263.182 526.741C263.182 529.44 260.981 531.633 258.278 531.633C255.57 531.633 253.369 529.44 253.369 526.741C253.369 524.043 255.57 521.85 258.278 521.85C260.981 521.85 263.182 524.043 263.182 526.741ZM255.932 526.741C255.932 528.029 256.981 529.074 258.278 529.074C259.575 529.074 260.619 528.029 260.619 526.741C260.619 525.454 259.57 524.409 258.278 524.409C256.986 524.409 255.932 525.454 255.932 526.741Z" fill="white"/>
<path d="M297.922 467.483C297.808 467.03 297.456 466.669 296.997 466.551C296.542 466.432 296.056 466.575 295.736 466.915C295.627 467.034 284.657 478.79 281.143 481.704C280.642 482.121 280.425 482.77 280.58 483.398C280.735 484.027 281.221 484.506 281.861 484.651L285.861 485.536C283.882 488.919 278.286 497.127 270.483 497.127C270.406 497.127 270.323 497.127 270.245 497.127L268.561 462.199L273.475 461.983V462.133C273.475 462.838 274.048 463.41 274.756 463.41H279.097C280.906 463.41 282.378 461.942 282.378 460.14V450.397C282.378 449.692 281.805 449.12 281.097 449.12H274.756C274.048 449.12 273.475 449.692 273.475 450.397V450.54L267.992 450.299L267.843 446.612C271.175 443.863 273.299 439.712 273.299 435.078C273.299 426.823 266.561 420.104 258.278 420.104C249.995 420.104 243.251 426.818 243.251 435.078C243.251 439.717 245.38 443.868 248.713 446.612L248.563 450.299L243.081 450.54V450.397C243.081 449.692 242.507 449.12 241.799 449.12H235.459C234.751 449.12 234.177 449.692 234.177 450.397V460.14C234.177 461.942 235.65 463.41 237.459 463.41H241.799C242.507 463.41 243.081 462.838 243.081 462.133V461.983L247.995 462.199L246.31 497.127C238.378 497.323 232.689 488.955 230.689 485.536L234.689 484.651C235.325 484.506 235.815 484.027 235.965 483.398C236.115 482.77 235.903 482.121 235.402 481.704C231.888 478.79 220.923 467.034 220.809 466.915C220.489 466.57 220.009 466.432 219.549 466.551C219.094 466.669 218.737 467.024 218.624 467.483C216.727 475.124 216.98 488.389 217.105 492.267C217.125 492.931 217.539 493.523 218.153 493.775C218.774 494.028 219.487 493.893 219.972 493.424L222.783 490.727C224.458 494.738 229.429 503.961 241.122 508.77C249.721 512.303 254.004 515.468 256.082 517.508C256.697 518.11 257.482 518.409 258.273 518.409C259.063 518.409 259.849 518.11 260.458 517.508C262.536 515.474 266.814 512.308 275.418 508.775C287.117 503.966 292.082 494.743 293.757 490.732L296.568 493.43C297.048 493.894 297.761 494.033 298.387 493.775C299.001 493.523 299.415 492.931 299.436 492.272C299.56 488.389 299.813 475.129 297.916 467.483H297.922ZM245.814 435.073C245.814 428.224 251.405 422.652 258.278 422.652C265.15 422.652 270.736 428.224 270.736 435.073C270.736 441.921 265.145 447.488 258.278 447.488C251.41 447.488 245.814 441.916 245.814 435.073ZM296.929 490.221L294.124 487.529C293.798 487.215 293.338 487.102 292.904 487.215C292.47 487.333 292.129 487.668 292.005 488.096C291.969 488.224 288.212 500.752 274.446 506.411C266.044 509.866 261.518 513.053 259.13 515.247V503.173C259.13 502.704 258.748 502.323 258.278 502.323C257.808 502.323 257.425 502.704 257.425 503.173V515.247C255.043 513.053 250.511 509.866 242.109 506.411C228.39 500.772 224.587 488.224 224.551 488.096C224.427 487.668 224.086 487.333 223.652 487.215C223.217 487.102 222.752 487.215 222.432 487.529L219.626 490.221C219.538 485.643 219.543 476.834 220.634 470.464C223.476 473.482 229.191 479.48 232.477 482.523L228.478 483.41C228.095 483.492 227.775 483.744 227.605 484.094C227.434 484.445 227.434 484.851 227.605 485.207C227.915 485.856 235.361 501.051 247.695 499.584C248.315 499.512 248.796 499.002 248.827 498.379L250.63 461.036C250.646 460.696 250.527 460.366 250.299 460.114C250.072 459.862 249.752 459.712 249.411 459.697L241.872 459.362C241.525 459.331 241.179 459.475 240.931 459.712C240.678 459.954 240.533 460.289 240.533 460.634V460.84H237.474C237.076 460.84 236.756 460.521 236.756 460.124V451.659H240.533V451.865C240.533 452.215 240.678 452.544 240.931 452.786C241.184 453.028 241.525 453.152 241.872 453.137L249.865 452.781C250.532 452.75 251.064 452.22 251.09 451.556L251.224 448.26C253.333 449.383 255.735 450.026 258.293 450.026C260.851 450.026 263.254 449.383 265.362 448.26L265.497 451.556C265.522 452.22 266.055 452.75 266.721 452.781L274.715 453.137C275.056 453.147 275.402 453.023 275.656 452.786C275.909 452.544 276.053 452.21 276.053 451.865V451.659H279.831V460.124C279.831 460.521 279.51 460.84 279.112 460.84H276.053V460.634C276.053 460.284 275.909 459.954 275.656 459.712C275.402 459.47 275.051 459.347 274.715 459.362L267.176 459.697C266.835 459.712 266.515 459.862 266.287 460.114C266.06 460.366 265.936 460.696 265.956 461.036L267.76 498.379C267.791 499.002 268.266 499.512 268.891 499.584C281.231 501.031 288.672 485.85 288.982 485.207C289.153 484.857 289.147 484.445 288.982 484.094C288.817 483.744 288.491 483.492 288.109 483.41L284.109 482.523C287.396 479.48 293.111 473.482 295.953 470.464C297.043 476.834 297.048 485.638 296.96 490.221H296.929Z" fill="white"/>
<path d="M258.273 443.424C262.898 443.424 266.66 439.675 266.66 435.066C266.66 430.458 262.898 426.709 258.273 426.709C253.649 426.709 249.887 430.458 249.887 435.066C249.887 439.675 253.649 443.424 258.273 443.424ZM258.273 429.268C261.482 429.268 264.097 431.869 264.097 435.072C264.097 438.274 261.487 440.875 258.273 440.875C255.059 440.875 252.45 438.274 252.45 435.072C252.45 431.869 255.059 429.268 258.273 429.268Z" fill="white"/>
<path d="M275.996 435.283C275.996 435.752 276.378 436.133 276.849 436.133H284.264C284.734 436.133 285.116 435.752 285.116 435.283C285.116 434.815 284.734 434.434 284.264 434.434H276.849C276.378 434.434 275.996 434.815 275.996 435.283Z" fill="white"/>
<path d="M276.519 432.209C276.736 432.209 276.958 432.126 277.123 431.962L279.314 429.778C279.65 429.444 279.65 428.908 279.314 428.573C278.978 428.239 278.441 428.239 278.105 428.573L275.914 430.757C275.578 431.091 275.578 431.627 275.914 431.962C276.079 432.126 276.302 432.209 276.519 432.209Z" fill="white"/>
<path d="M278.105 441.999C278.27 442.163 278.493 442.246 278.71 442.246C278.927 442.246 279.149 442.163 279.314 441.999C279.65 441.664 279.65 441.128 279.314 440.794L277.123 438.61C276.787 438.276 276.25 438.276 275.914 438.61C275.578 438.945 275.578 439.481 275.914 439.815L278.105 441.999Z" fill="white"/>
<path d="M232.282 436.139H239.697C240.168 436.139 240.55 435.758 240.55 435.289C240.55 434.821 240.168 434.439 239.697 434.439H232.282C231.812 434.439 231.43 434.821 231.43 435.289C231.43 435.758 231.812 436.139 232.282 436.139Z" fill="white"/>
<path d="M239.423 431.962C239.589 432.126 239.811 432.209 240.028 432.209C240.245 432.209 240.467 432.126 240.632 431.962C240.968 431.632 240.968 431.091 240.632 430.757L238.442 428.573C238.106 428.239 237.568 428.239 237.232 428.573C236.896 428.903 236.896 429.444 237.232 429.778L239.423 431.962Z" fill="white"/>
<path d="M239.423 438.614L237.232 440.798C236.896 441.132 236.896 441.668 237.232 442.003C237.398 442.167 237.62 442.25 237.837 442.25C238.054 442.25 238.276 442.167 238.442 442.003L240.632 439.819C240.968 439.485 240.968 438.949 240.632 438.614C240.297 438.28 239.759 438.28 239.423 438.614Z" fill="white"/>
<path d="M208.651 438.806C205.943 438.806 203.742 436.612 203.742 433.919C203.742 431.226 205.943 429.027 208.651 429.027C211.359 429.027 213.56 431.221 213.56 433.919C213.56 436.617 211.359 438.806 208.651 438.806Z" fill="white"/>
<path d="M307.899 438.806C305.192 438.806 302.99 436.612 302.99 433.919C302.99 431.226 305.192 429.027 307.899 429.027C310.607 429.027 312.808 431.221 312.808 433.919C312.808 436.617 310.607 438.806 307.899 438.806Z" fill="white"/>
<path d="M254.883 523.213C252.454 521.715 249.318 520.077 245.768 518.223C236.079 513.162 224.018 506.869 217.068 498.712C208.32 488.445 211.565 477.492 214.423 467.832C215.461 464.325 216.443 461.014 216.81 457.919C217.735 450.175 214.583 442.111 212.18 437.291C211.581 437.914 210.816 438.378 209.958 438.62C212.201 443.187 215.094 450.674 214.263 457.616C213.916 460.494 212.966 463.707 211.963 467.106C209.069 476.879 205.468 489.042 215.11 500.36C222.38 508.893 234.684 515.319 244.574 520.479C248.015 522.276 251.183 523.929 253.555 525.391C253.798 524.547 254.263 523.8 254.878 523.208L254.883 523.213Z" fill="white"/>
<path d="M304.577 467.112C303.57 463.713 302.619 460.5 302.278 457.621C301.446 450.675 304.34 443.193 306.582 438.625C305.724 438.389 304.96 437.925 304.36 437.297C301.958 442.117 298.805 450.181 299.73 457.925C300.102 461.02 301.079 464.331 302.118 467.838C304.98 477.498 308.22 488.451 299.472 498.718C292.522 506.875 280.456 513.173 270.757 518.234C267.212 520.083 264.081 521.72 261.652 523.219C262.272 523.811 262.737 524.558 262.98 525.402C265.347 523.945 268.509 522.292 271.946 520.5C281.836 515.335 294.15 508.909 301.425 500.371C311.073 489.053 307.466 476.89 304.572 467.117L304.577 467.112Z" fill="white"/>
</g>
<path fill-rule="evenodd" clip-rule="evenodd" d="M165.5 160.951C165.5 167.351 166 173.651 166.9 179.951L168.9 193.451C167.1 193.751 165.4 193.951 163.5 193.951C161.6 193.951 159.9 193.751 158.1 193.451L160.1 179.951C161 173.651 161.5 167.351 161.5 160.951V132.551C162.2 132.551 162.9 132.451 163.6 132.451C164.3 132.451 165 132.451 165.7 132.551V160.951H165.5ZM144.8 187.751L152.8 172.151C153.4 170.951 153.7 169.651 153.7 168.351V134.051C141.5 138.151 132.6 149.651 132.6 163.251C132.7 173.251 137.5 182.151 144.8 187.751ZM173.2 168.351C173.2 169.651 173.5 170.951 174.1 172.151L182.1 187.751C189.5 182.151 194.2 173.251 194.2 163.251C194.2 149.651 185.4 138.151 173.1 134.051V168.351H173.2Z" fill="white"/>
<path d="M384 153.251V152.551H387.4V153.251H384ZM385.3 156.951V153.051H386V156.951H385.3ZM388.1 156.951V152.651H388.8V156.951H388.1ZM390.2 156.951L388.3 152.651H389.1L390.4 155.851L391.7 152.651H392.5L390.6 156.951H390.2ZM391.9 156.951V152.651H392.6V156.951H391.9Z" fill="white"/>
<path d="M229.5 144.451C218 144.451 209.6 152.651 209.6 164.051V164.451C209.6 175.951 217.8 184.051 229.5 184.051C241.2 184.051 249.3 175.951 249.3 164.351V163.951C249.3 152.451 241.1 144.451 229.5 144.451ZM217.7 164.051C217.7 155.851 222.2 150.751 229.5 150.751C236.8 150.751 241.2 155.951 241.2 164.051V164.451C241.2 172.551 236.6 177.851 229.6 177.851C222.6 177.851 217.7 172.351 217.7 164.551V164.051Z" fill="white"/>
<path d="M285.399 142.951C284.099 142.551 283.099 142.451 281.499 142.451C275.299 142.451 271.699 145.951 271.699 152.151V155.251H260.899V151.851C260.899 148.751 262.799 148.051 264.299 148.051C265.499 148.051 266.499 148.351 267.099 148.551C267.199 148.551 267.299 148.551 267.399 148.551C267.499 148.451 267.499 148.451 267.499 148.351V143.351C267.499 143.251 267.399 143.151 267.299 143.051C265.999 142.651 264.999 142.551 263.499 142.551C257.199 142.551 253.699 145.951 253.699 152.251V183.351C253.699 183.551 253.799 183.651 253.999 183.651H260.499C260.699 183.651 260.799 183.551 260.799 183.351V160.551H271.599V183.151C271.599 183.351 271.699 183.451 271.899 183.451H278.399C278.599 183.451 278.699 183.351 278.699 183.151V160.551H284.799C284.999 160.551 285.099 160.451 285.099 160.251V155.451C285.099 155.251 284.999 155.151 284.799 155.151H278.699V151.851C278.699 148.751 280.599 148.051 282.099 148.051C283.399 148.051 284.399 148.351 284.999 148.551C285.099 148.551 285.199 148.551 285.299 148.551C285.399 148.551 285.399 148.451 285.399 148.351V143.351C285.599 143.151 285.599 143.051 285.399 142.951Z" fill="white"/>
<path d="M304.7 160.351C298.1 159.451 296.9 157.951 296.9 155.051C296.9 152.152 299.3 150.352 303.3 150.352C307.7 150.352 309.8 151.952 310.5 155.751C310.5 155.851 310.6 155.951 310.8 155.951H317.4C317.5 155.951 317.6 155.951 317.6 155.851C317.7 155.751 317.7 155.751 317.7 155.651C316.9 148.252 312 144.352 303.3 144.352C295.2 144.352 289.5 148.952 289.5 155.551C289.5 162.151 293.4 165.651 303.4 166.951C310.1 168.051 311.2 169.551 311.2 172.451C311.2 175.751 308.4 177.951 304.2 177.951C297.7 177.951 296.3 174.751 295.9 171.251C295.9 171.151 295.8 170.951 295.6 170.951H288.7C288.6 170.951 288.5 170.951 288.5 171.051C288.5 171.151 288.4 171.151 288.4 171.251C288.8 176.951 291.9 183.851 304.2 183.851C312.6 183.851 318.7 178.751 318.7 171.851C318.8 163.951 313.4 161.551 304.7 160.351Z" fill="white"/>
<path d="M346.599 157.951C344.199 155.751 340.899 154.551 337.099 154.551C328.599 154.551 322.699 160.551 322.699 169.151V169.551C322.699 178.151 328.599 183.951 337.299 183.951C344.799 183.951 349.699 180.551 350.599 174.651C350.599 174.551 350.599 174.451 350.499 174.451C350.399 174.351 350.399 174.351 350.299 174.351H343.999C343.899 174.351 343.699 174.451 343.699 174.551C343.199 177.251 341.099 178.551 337.499 178.551C332.999 178.551 330.299 175.851 329.999 170.951H350.399C350.599 170.951 350.699 170.851 350.699 170.651V168.751C350.699 164.151 349.299 160.451 346.599 157.951ZM330.199 166.151C330.899 162.151 333.399 159.851 337.099 159.851C341.099 159.851 343.299 161.951 343.599 166.151H330.199Z" fill="white"/>
<path d="M383.101 172.652C383.001 172.552 383.001 172.552 382.901 172.552H376.901C376.701 172.552 376.601 172.652 376.601 172.852C376.301 176.252 373.701 178.552 370.101 178.552C365.301 178.552 362.601 175.252 362.601 169.652V169.252C362.601 163.852 365.501 160.452 370.001 160.452C373.601 160.452 375.701 162.152 376.201 165.452C376.201 165.552 376.301 165.752 376.501 165.752H382.801C382.901 165.752 383.001 165.752 383.001 165.652C383.101 165.552 383.101 165.552 383.101 165.452C382.401 158.652 377.601 154.752 369.901 154.752C361.401 154.752 355.301 160.952 355.301 169.452V169.852C355.301 178.452 361.201 184.252 369.901 184.252C377.501 184.252 382.801 179.852 383.301 173.052C383.201 172.852 383.201 172.752 383.101 172.652Z" fill="white"/>
<path d="M519 221.65H-1V391.249H519V221.65Z" fill="#1C1822"/>
<path d="M519 221.65H-1V391.249H519V221.65Z" fill="url(#paint2_linear_1473_34152)"/>
<path d="M355.205 348.943V242.689H375.733V348.943H355.205ZM419.681 348.943L387.298 302.972H410.284L443.678 348.943H419.681ZM369.661 313.67V297.045H396.55C400.309 297.045 403.538 296.274 406.236 294.732C409.031 293.19 411.199 291.022 412.741 288.227C414.283 285.432 415.054 282.251 415.054 278.686C415.054 275.023 414.283 271.795 412.741 269C411.199 266.205 409.031 264.037 406.236 262.495C403.538 260.953 400.309 260.182 396.55 260.182H369.661V242.689H394.382C402.863 242.689 410.187 243.942 416.356 246.448C422.62 248.954 427.439 252.761 430.812 257.869C434.185 262.976 435.872 269.385 435.872 277.095V279.408C435.872 287.215 434.137 293.624 430.667 298.635C427.294 303.647 422.524 307.405 416.356 309.911C410.187 312.417 402.863 313.67 394.382 313.67H369.661Z" fill="white"/>
<path d="M308.342 348.943V243.412H328.87V348.943H308.342Z" fill="white"/>
<path d="M246.637 351.69C237.288 351.69 229.385 350.196 222.928 347.209C216.567 344.221 211.7 340.125 208.327 334.921C204.954 329.62 203.268 323.645 203.268 316.995H223.362C223.362 319.79 224.133 322.537 225.675 325.235C227.217 327.837 229.675 329.958 233.048 331.596C236.517 333.234 241.047 334.054 246.637 334.054C251.648 334.054 255.841 333.331 259.214 331.885C262.587 330.44 265.093 328.56 266.731 326.247C268.369 323.838 269.189 321.139 269.189 318.152C269.189 314.393 267.598 311.405 264.418 309.189C261.238 306.876 256.322 305.43 249.673 304.852L240.42 304.129C230.301 303.262 222.205 300.13 216.134 294.733C210.158 289.239 207.171 282.011 207.171 273.048C207.171 266.302 208.761 260.519 211.941 255.701C215.122 250.785 219.555 247.027 225.241 244.425C231.024 241.726 237.77 240.377 245.48 240.377C253.479 240.377 260.37 241.774 266.153 244.569C271.935 247.364 276.417 251.316 279.597 256.423C282.778 261.435 284.368 267.362 284.368 274.205H264.273C264.273 271.313 263.551 268.663 262.105 266.254C260.756 263.748 258.684 261.772 255.889 260.327C253.19 258.785 249.721 258.014 245.48 258.014C241.432 258.014 238.059 258.688 235.361 260.037C232.662 261.387 230.638 263.218 229.289 265.531C227.94 267.844 227.265 270.35 227.265 273.048C227.265 276.325 228.47 279.216 230.879 281.722C233.289 284.131 237.095 285.529 242.3 285.914L251.552 286.782C259.069 287.36 265.671 288.95 271.357 291.552C277.043 294.154 281.428 297.672 284.512 302.105C287.693 306.539 289.283 311.887 289.283 318.152C289.283 324.802 287.548 330.68 284.079 335.788C280.609 340.8 275.646 344.703 269.189 347.498C262.828 350.293 255.311 351.69 246.637 351.69Z" fill="white"/>
<path d="M135.71 351.69C126.169 351.69 117.88 350.004 110.845 346.631C103.906 343.257 98.1232 338.872 93.4972 333.475C88.9675 327.982 85.5462 322.103 83.2332 315.839C81.0165 309.478 79.9082 303.358 79.9082 297.479V294.299C79.9082 287.842 81.0647 281.433 83.3777 275.072C85.6908 268.615 89.1603 262.784 93.7863 257.58C98.5087 252.376 104.339 248.232 111.279 245.148C118.218 241.967 126.361 240.377 135.71 240.377C144.962 240.377 153.057 241.967 159.997 245.148C166.936 248.232 172.718 252.376 177.344 257.58C182.067 262.784 185.584 268.615 187.897 275.072C190.21 281.433 191.367 287.842 191.367 294.299V297.479C191.367 303.358 190.21 309.478 187.897 315.839C185.681 322.103 182.259 327.982 177.633 333.475C173.104 338.872 167.321 343.257 160.286 346.631C153.347 350.004 145.155 351.69 135.71 351.69ZM135.71 332.608C141.107 332.608 145.926 331.644 150.166 329.717C154.503 327.789 158.165 325.139 161.153 321.766C164.237 318.296 166.55 314.393 168.092 310.056C169.73 305.623 170.55 300.949 170.55 296.034C170.55 290.733 169.73 285.866 168.092 281.433C166.55 277 164.237 273.145 161.153 269.868C158.165 266.591 154.503 264.037 150.166 262.206C145.829 260.375 141.01 259.459 135.71 259.459C130.313 259.459 125.446 260.375 121.109 262.206C116.772 264.037 113.061 266.591 109.977 269.868C106.99 273.145 104.677 277 103.038 281.433C101.496 285.866 100.725 290.733 100.725 296.034C100.725 300.949 101.496 305.623 103.038 310.056C104.677 314.393 106.99 318.296 109.977 321.766C113.061 325.139 116.772 327.789 121.109 329.717C125.446 331.644 130.313 332.608 135.71 332.608Z" fill="white"/>
</g>
</g>
</g>
</g>
<defs>
<linearGradient id="paint0_linear_1473_34152" x1="258.999" y1="592.392" x2="258.999" y2="86.9815" gradientUnits="userSpaceOnUse">
<stop stop-color="#06C68D" stop-opacity="0.5"/>
<stop offset="1" stop-color="#06C68D"/>
</linearGradient>
<linearGradient id="paint1_linear_1473_34152" x1="258.999" y1="555.238" x2="258.999" y2="117.888" gradientUnits="userSpaceOnUse">
<stop stop-color="#06C68D"/>
<stop offset="1" stop-color="#06C68D" stop-opacity="0.5"/>
</linearGradient>
<linearGradient id="paint2_linear_1473_34152" x1="259" y1="185.249" x2="259" y2="464.125" gradientUnits="userSpaceOnUse">
<stop stop-color="#06C68D"/>
<stop offset="0.7661" stop-color="#06C68D" stop-opacity="0.5"/>
</linearGradient>
<clipPath id="clip0_1473_34152">
<rect width="520" height="600" fill="white"/>
</clipPath>
</defs>
</svg>
