<svg width="520" height="600" viewBox="0 0 520 600" fill="none" xmlns="http://www.w3.org/2000/svg">
<g clip-path="url(#clip0_3119_6466)">
<g clip-path="url(#clip1_3119_6466)">
<path d="M365.9 392.157H489.6" stroke="#FFDF00" stroke-width="2" stroke-miterlimit="10"/>
<path d="M32.4 392.157H156.1" stroke="#FFDF00" stroke-width="2" stroke-miterlimit="10"/>
<path d="M0 165.2V434.698C0 445.559 5.7 455.608 15 461.09L245 595.889C254.3 601.37 265.7 601.37 275 595.889L505 461.09C514.3 455.608 520 445.559 520 434.698V165.2C520 154.339 514.3 144.29 505 138.809L275 4.11098C265.7 -1.37033 254.3 -1.37033 245 4.11098L15 138.809C5.7 144.29 0 154.339 0 165.2Z" fill="url(#paint0_linear_3119_6466)"/>
<path d="M31 183.37V416.63C31 427.491 36.7 437.54 46 443.022L245 559.652C254.3 565.133 265.7 565.133 275 559.652L474 443.022C483.3 437.54 489 427.491 489 416.63V183.37C489 172.509 483.3 162.46 474 156.979L275 40.4501C265.7 34.9688 254.3 34.9688 245 40.4501L46 156.979C36.7 162.46 31 172.509 31 183.37Z" fill="url(#paint1_linear_3119_6466)"/>
<g clip-path="url(#clip2_3119_6466)">
<path d="M261.297 435.399C260.653 435.399 260.133 434.871 260.133 434.216V418.219C260.133 417.565 260.653 417.036 261.297 417.036C261.942 417.036 262.462 417.565 262.462 418.219V434.216C262.462 434.871 261.942 435.399 261.297 435.399Z" fill="white"/>
<path d="M319.806 477.954H304.065C303.421 477.954 302.901 477.426 302.901 476.771C302.901 476.116 303.421 475.588 304.065 475.588H319.806C320.45 475.588 320.97 476.116 320.97 476.771C320.97 477.426 320.45 477.954 319.806 477.954Z" fill="white"/>
<path d="M219.205 477.954H203.464C202.82 477.954 202.3 477.426 202.3 476.771C202.3 476.116 202.82 475.588 203.464 475.588H219.205C219.849 475.588 220.369 476.116 220.369 476.771C220.369 477.426 219.849 477.954 219.205 477.954Z" fill="white"/>
<path d="M293.928 435.912C286.516 429.791 277.489 425.784 267.779 424.553C267.134 424.467 266.56 424.932 266.482 425.579C266.405 426.226 266.855 426.817 267.491 426.896C276.736 428.071 285.328 431.881 292.399 437.687C292.748 436.961 293.276 436.346 293.928 435.904V435.912Z" fill="white"/>
<path d="M235.637 519.831C227.976 515.051 221.627 508.157 217.42 499.757C217.125 499.173 216.426 498.944 215.852 499.236C215.278 499.536 215.053 500.246 215.34 500.829C219.764 509.664 226.462 516.913 234.535 521.922C234.713 521.125 235.101 520.407 235.629 519.831H235.637Z" fill="white"/>
<path d="M254.948 526.812C250.904 526.268 246.985 525.219 243.275 523.72C243.135 524.525 242.778 525.258 242.273 525.858C246.201 527.459 250.353 528.579 254.646 529.155C254.7 529.155 254.746 529.163 254.801 529.163C255.375 529.163 255.872 528.729 255.95 528.137C256.035 527.49 255.585 526.891 254.948 526.812Z" fill="white"/>
<path d="M279.305 523.594C275.548 525.085 271.582 526.126 267.484 526.639C266.847 526.717 266.389 527.309 266.475 527.956C266.544 528.555 267.049 528.989 267.631 528.989C267.678 528.989 267.724 528.989 267.779 528.981C272.102 528.429 276.278 527.333 280.244 525.755C279.755 525.14 279.429 524.398 279.313 523.586L279.305 523.594Z" fill="white"/>
<path d="M306.828 499.283C306.254 498.984 305.555 499.212 305.26 499.788C300.999 508.173 294.603 515.035 286.911 519.768C287.455 520.336 287.851 521.046 288.037 521.843C296.125 516.881 302.854 509.68 307.333 500.877C307.628 500.293 307.403 499.583 306.828 499.283Z" fill="white"/>
<path d="M256.113 425.579C256.035 424.932 255.453 424.467 254.816 424.553C245.106 425.784 236.079 429.791 228.667 435.912C229.319 436.354 229.847 436.969 230.196 437.695C237.259 431.881 245.851 428.071 255.103 426.904C255.74 426.825 256.198 426.234 256.113 425.587V425.579Z" fill="white"/>
<path d="M261.297 485.432C256.57 485.432 252.728 481.52 252.728 476.724C252.728 471.928 256.57 468.016 261.297 468.016C266.024 468.016 269.866 471.928 269.866 476.724C269.866 481.52 266.024 485.432 261.297 485.432ZM261.297 469.585C257.424 469.585 254.281 472.788 254.281 476.716C254.281 480.644 257.432 483.847 261.297 483.847C265.163 483.847 268.314 480.644 268.314 476.716C268.314 472.788 265.163 469.585 261.297 469.585Z" fill="white"/>
<path d="M261.297 472.496C260.871 472.496 260.521 472.141 260.521 471.707V465.081C260.521 464.647 260.871 464.292 261.297 464.292C261.724 464.292 262.074 464.647 262.074 465.081V471.707C262.074 472.141 261.724 472.496 261.297 472.496Z" fill="white"/>
<path d="M261.297 489.51C260.871 489.51 260.521 489.155 260.521 488.721V482.095C260.521 481.662 260.871 481.307 261.297 481.307C261.724 481.307 262.074 481.662 262.074 482.095V488.721C262.074 489.155 261.724 489.51 261.297 489.51Z" fill="white"/>
<path d="M272.925 477.694H266.405C265.978 477.694 265.628 477.339 265.628 476.905C265.628 476.471 265.978 476.116 266.405 476.116H272.925C273.351 476.116 273.701 476.471 273.701 476.905C273.701 477.339 273.351 477.694 272.925 477.694Z" fill="white"/>
<path d="M256.19 477.694H249.67C249.243 477.694 248.894 477.339 248.894 476.905C248.894 476.471 249.243 476.116 249.67 476.116H256.19C256.617 476.116 256.966 476.471 256.966 476.905C256.966 477.339 256.617 477.694 256.19 477.694Z" fill="white"/>
<path d="M218.103 452.327C219.818 449.211 221.813 446.308 224.087 443.666C223.389 443.287 222.807 442.719 222.395 442.033C219.966 444.841 217.839 447.933 216.015 451.262L218.095 452.327H218.103Z" fill="white"/>
<path d="M306.572 451.27C304.756 447.941 302.621 444.849 300.192 442.041C299.78 442.727 299.198 443.295 298.5 443.674C300.774 446.308 302.769 449.211 304.484 452.334L306.564 451.27H306.572Z" fill="white"/>
<path d="M283.714 527.451C281.253 527.451 279.258 525.416 279.258 522.923C279.258 520.431 281.261 518.396 283.714 518.396C286.166 518.396 288.169 520.431 288.169 522.923C288.169 525.416 286.166 527.451 283.714 527.451ZM283.714 520.762C282.541 520.762 281.587 521.732 281.587 522.923C281.587 524.114 282.541 525.084 283.714 525.084C284.886 525.084 285.84 524.114 285.84 522.923C285.84 521.732 284.886 520.762 283.714 520.762Z" fill="white"/>
<path d="M238.881 527.451C236.421 527.451 234.426 525.416 234.426 522.923C234.426 520.431 236.429 518.396 238.881 518.396C241.334 518.396 243.337 520.431 243.337 522.923C243.337 525.416 241.334 527.451 238.881 527.451ZM238.881 520.762C237.709 520.762 236.755 521.732 236.755 522.923C236.755 524.114 237.709 525.084 238.881 525.084C240.053 525.084 241.008 524.114 241.008 522.923C241.008 521.732 240.053 520.762 238.881 520.762Z" fill="white"/>
<path d="M296.396 444.21C293.936 444.21 291.941 442.175 291.941 439.682C291.941 437.19 293.944 435.155 296.396 435.155C298.849 435.155 300.852 437.19 300.852 439.682C300.852 442.175 298.849 444.21 296.396 444.21ZM296.396 437.521C295.224 437.521 294.27 438.491 294.27 439.682C294.27 440.873 295.224 441.843 296.396 441.843C297.568 441.843 298.523 440.873 298.523 439.682C298.523 438.491 297.568 437.521 296.396 437.521Z" fill="white"/>
<path d="M226.199 444.21C223.738 444.21 221.743 442.175 221.743 439.682C221.743 437.19 223.746 435.155 226.199 435.155C228.651 435.155 230.654 437.19 230.654 439.682C230.654 442.175 228.651 444.21 226.199 444.21ZM226.199 437.521C225.027 437.521 224.072 438.491 224.072 439.682C224.072 440.873 225.027 441.843 226.199 441.843C227.371 441.843 228.325 440.873 228.325 439.682C228.325 438.491 227.371 437.521 226.199 437.521Z" fill="white"/>
<path d="M261.297 537.997C260.653 537.997 260.133 537.469 260.133 536.814V528.169C260.133 527.514 260.653 526.986 261.297 526.986C261.942 526.986 262.462 527.514 262.462 528.169V536.814C262.462 537.469 261.942 537.997 261.297 537.997Z" fill="white"/>
<path d="M294.759 524.666C294.114 524.666 293.594 524.138 293.594 523.483V504.836C293.594 502.596 292.376 500.577 290.404 499.559L274.19 491.198C273.615 490.898 273.39 490.188 273.677 489.605C273.972 489.021 274.671 488.792 275.245 489.084L291.46 497.445C294.215 498.865 295.923 501.697 295.923 504.828V523.475C295.923 524.13 295.403 524.659 294.759 524.659V524.666Z" fill="white"/>
<path d="M269.665 444.005C269.548 444.005 269.424 443.981 269.315 443.918C268.935 443.721 268.78 443.248 268.974 442.861L273.274 434.255C273.406 433.987 273.678 433.822 273.965 433.822H283.527C283.954 433.822 284.303 434.176 284.303 434.61C284.303 435.044 283.954 435.399 283.527 435.399H274.438L270.355 443.571C270.216 443.847 269.944 444.005 269.665 444.005Z" fill="white"/>
<path d="M261.297 496.672C250.501 496.672 241.714 487.743 241.714 476.771C241.714 465.799 250.501 456.878 261.297 456.878C272.094 456.878 280.88 465.807 280.88 476.771C280.88 487.735 272.094 496.672 261.297 496.672ZM261.297 459.244C251.781 459.244 244.043 467.109 244.043 476.771C244.043 486.434 251.781 494.306 261.297 494.306C270.813 494.306 278.552 486.442 278.552 476.771C278.552 467.101 270.813 459.244 261.297 459.244Z" fill="white"/>
<path d="M275.579 501.744H247.52C247.093 501.744 246.744 501.389 246.744 500.956C246.744 500.522 247.093 500.167 247.52 500.167H275.579C276.006 500.167 276.355 500.522 276.355 500.956C276.355 501.389 276.006 501.744 275.579 501.744Z" fill="white"/>
<path d="M273.251 510.247H249.849C249.422 510.247 249.073 509.893 249.073 509.459C249.073 509.025 249.422 508.67 249.849 508.67H273.251C273.677 508.67 274.027 509.025 274.027 509.459C274.027 509.893 273.677 510.247 273.251 510.247Z" fill="white"/>
<path d="M227.929 524.666C227.285 524.666 226.765 524.138 226.765 523.483V504.836C226.765 501.697 228.473 498.873 231.228 497.453L247.443 489.092C248.017 488.792 248.716 489.029 249.011 489.613C249.298 490.196 249.073 490.906 248.498 491.206L232.284 499.567C230.32 500.577 229.094 502.604 229.094 504.844V523.491C229.094 524.146 228.574 524.674 227.929 524.674V524.666Z" fill="white"/>
<path d="M253.023 444.005C252.744 444.005 252.464 443.847 252.333 443.571L248.25 435.399H239.161C238.734 435.399 238.385 435.044 238.385 434.61C238.385 434.176 238.734 433.822 239.161 433.822H248.723C249.018 433.822 249.282 433.987 249.414 434.255L253.714 442.861C253.908 443.248 253.753 443.721 253.373 443.918C253.256 443.973 253.14 444.005 253.023 444.005Z" fill="white"/>
<path d="M261.476 520.967H261.111C260.839 520.967 260.568 520.872 260.358 520.691L251.223 512.882C247.264 509.498 244.99 504.789 244.99 499.969V491.379C244.99 490.725 245.51 490.196 246.154 490.196C246.798 490.196 247.318 490.725 247.318 491.379V499.969C247.318 504.15 249.236 508.086 252.721 511.068L261.29 518.396L269.859 511.068C273.344 508.094 275.261 504.15 275.261 499.969V491.379C275.261 490.725 275.781 490.196 276.425 490.196C277.069 490.196 277.589 490.725 277.589 491.379V499.969C277.589 504.789 275.315 509.498 271.357 512.882L262.221 520.691C262.011 520.872 261.748 520.967 261.468 520.967H261.476Z" fill="white"/>
<path d="M270.456 461.721C270.255 461.721 270.053 461.666 269.874 461.563C267.274 460.041 264.309 459.236 261.297 459.236C258.286 459.236 255.321 460.041 252.721 461.563C252.309 461.808 251.789 461.768 251.417 461.469L246.34 457.383C244.718 456.073 243.88 454.046 244.09 451.948V448.88C244.09 445.78 246.573 443.256 249.624 443.256H252.713L258.185 439.406C259.861 438.223 262.043 438.207 263.735 439.359L269.61 443.35H273.025C276.076 443.35 278.56 445.874 278.56 448.974V452.39C278.653 454.259 277.76 456.176 276.169 457.462L271.186 461.477C270.976 461.642 270.72 461.729 270.464 461.729L270.456 461.721ZM249.616 445.614C247.846 445.614 246.41 447.073 246.41 448.872V452.003C246.41 452.051 246.41 452.09 246.41 452.137C246.263 453.447 246.783 454.709 247.792 455.521L252.263 459.126C255.041 457.651 258.154 456.878 261.305 456.878C264.456 456.878 267.561 457.651 270.348 459.126L274.725 455.6C275.727 454.796 276.293 453.612 276.231 452.445V448.966C276.231 447.168 274.795 445.709 273.025 445.709H269.269C269.051 445.724 268.811 445.646 268.617 445.511L262.446 441.315C261.554 440.708 260.397 440.716 259.512 441.339L253.745 445.401C253.551 445.535 253.318 445.614 253.085 445.614H249.631H249.616Z" fill="white"/>
<path d="M261.437 528.95C261.344 528.95 261.243 528.934 261.15 528.894C260.754 528.729 260.56 528.271 260.723 527.869C261.22 526.623 265.621 515.619 267.336 513.876C267.639 513.568 268.128 513.568 268.43 513.876C268.733 514.183 268.733 514.68 268.43 514.988C267.305 516.132 263.991 523.854 262.159 528.46C262.035 528.768 261.748 528.95 261.437 528.95Z" fill="white"/>
<path d="M261.158 528.95C260.847 528.95 260.56 528.76 260.436 528.46C258.604 523.862 255.282 516.132 254.164 514.988C253.862 514.68 253.862 514.183 254.164 513.876C254.467 513.568 254.956 513.568 255.259 513.876C256.974 515.619 261.375 526.623 261.872 527.869C262.035 528.271 261.841 528.737 261.445 528.894C261.352 528.934 261.251 528.95 261.158 528.95Z" fill="white"/>
<path d="M318.052 446.04C317.71 445.827 317.275 445.803 316.918 445.993L277.993 465.839C277.419 466.13 277.186 466.84 277.473 467.424C277.76 468.008 278.459 468.244 279.033 467.953L316.266 448.966V463.803L278.521 483.05C277.946 483.342 277.714 484.052 278.001 484.635C278.063 484.77 278.156 484.872 278.257 484.967C278.327 485.306 278.544 485.606 278.87 485.771L312.58 502.959C312.743 503.046 312.921 503.085 313.1 503.085C313.309 503.085 313.527 503.022 313.713 502.912C314.054 502.699 314.264 502.312 314.264 501.902V486.71C314.264 486.26 314.016 485.85 313.62 485.653L296.101 476.716L317.951 465.57C318.347 465.373 318.595 464.963 318.595 464.513V447.026C318.595 446.616 318.385 446.237 318.044 446.016L318.052 446.04ZM293.765 478.183L311.943 487.451V499.993L281.222 484.328L293.555 478.041C293.618 478.096 293.695 478.144 293.773 478.183H293.765Z" fill="white"/>
<path d="M209.449 497.966C209.161 497.966 208.89 497.808 208.758 497.532C208.564 497.146 208.719 496.672 209.099 496.475L238.509 481.441C238.897 481.244 239.363 481.401 239.549 481.788C239.743 482.174 239.588 482.648 239.207 482.845L209.798 497.879C209.689 497.934 209.565 497.966 209.449 497.966Z" fill="white"/>
<path d="M313.146 497.966C313.03 497.966 312.913 497.942 312.797 497.879L283.387 482.845C283.007 482.648 282.852 482.174 283.046 481.788C283.24 481.401 283.706 481.244 284.086 481.441L313.495 496.475C313.876 496.672 314.031 497.146 313.837 497.532C313.697 497.808 313.426 497.966 313.146 497.966Z" fill="white"/>
<path d="M283.737 469.98C283.45 469.98 283.178 469.822 283.046 469.546C282.852 469.159 283.007 468.686 283.387 468.489L312.797 453.454C313.038 453.328 313.325 453.344 313.55 453.486C313.783 453.628 313.922 453.88 313.922 454.156V458.763C313.922 459.197 313.573 459.552 313.146 459.552C312.719 459.552 312.37 459.197 312.37 458.763V455.434L284.086 469.893C283.977 469.948 283.853 469.98 283.737 469.98Z" fill="white"/>
<path d="M238.928 469.98C238.812 469.98 238.695 469.956 238.579 469.893L210.302 455.427V458.755C210.302 459.189 209.953 459.544 209.526 459.544C209.099 459.544 208.75 459.189 208.75 458.755V454.149C208.75 453.873 208.89 453.62 209.123 453.478C209.355 453.336 209.635 453.32 209.876 453.447L239.285 468.481C239.665 468.678 239.821 469.151 239.626 469.538C239.487 469.814 239.215 469.972 238.936 469.972L238.928 469.98Z" fill="white"/>
<path d="M277.357 454.196H270.495C269.098 454.196 267.965 453.044 267.965 451.624V444.88C267.965 444.447 268.314 444.092 268.741 444.092H272.987C275.82 444.092 278.133 446.434 278.133 449.321V453.407C278.133 453.841 277.783 454.196 277.357 454.196ZM269.517 445.669V451.624C269.517 452.169 269.952 452.618 270.495 452.618H276.58V449.321C276.58 447.31 274.966 445.669 272.987 445.669H269.517Z" fill="white"/>
<path d="M252.775 454.425H245.215C244.788 454.425 244.439 454.07 244.439 453.636V448.856C244.439 445.977 246.744 443.626 249.585 443.626H254.529C254.956 443.626 255.305 443.981 255.305 444.415V451.853C255.305 453.273 254.172 454.425 252.775 454.425ZM245.991 452.847H252.775C253.311 452.847 253.753 452.405 253.753 451.853V445.204H249.585C247.606 445.204 245.991 446.844 245.991 448.856V452.847Z" fill="white"/>
<path d="M244.594 465.839L205.676 445.993C205.312 445.811 204.885 445.827 204.543 446.04C204.202 446.253 203.992 446.639 203.992 447.05V464.537C203.992 464.987 204.24 465.397 204.636 465.594L226.486 476.74L208.967 485.677C208.572 485.874 208.323 486.284 208.323 486.734V501.926C208.323 502.336 208.533 502.714 208.874 502.935C209.061 503.054 209.27 503.109 209.487 503.109C209.666 503.109 209.844 503.069 210.007 502.983L243.717 485.795C244.043 485.629 244.253 485.322 244.33 484.99C244.431 484.896 244.524 484.793 244.586 484.659C244.873 484.075 244.641 483.365 244.066 483.074L206.321 463.803V448.966L243.554 467.953C244.128 468.244 244.827 468.008 245.114 467.424C245.401 466.84 245.168 466.13 244.594 465.839ZM210.644 487.451L228.822 478.183C228.9 478.144 228.97 478.096 229.039 478.041L241.373 484.328L210.652 499.993V487.451H210.644Z" fill="white"/>
</g>
<path fill-rule="evenodd" clip-rule="evenodd" d="M166.5 159.313C166.5 165.81 167 172.204 167.9 178.599L169.9 192.302C168.1 192.607 166.4 192.81 164.5 192.81C162.6 192.81 160.9 192.607 159.1 192.302L161.1 178.599C162 172.204 162.5 165.81 162.5 159.313V130.486C163.2 130.486 163.9 130.384 164.6 130.384C165.3 130.384 166 130.384 166.7 130.486V159.313H166.5ZM145.8 186.517L153.8 170.682C154.4 169.464 154.7 168.144 154.7 166.825V132.008C142.5 136.17 133.6 147.843 133.6 161.648C133.7 171.798 138.5 180.832 145.8 186.517ZM174.2 166.825C174.2 168.144 174.5 169.464 175.1 170.682L183.1 186.517C190.5 180.832 195.2 171.798 195.2 161.648C195.2 147.843 186.4 136.17 174.1 132.008V166.825H174.2Z" fill="white"/>
<path d="M385 151.497V150.787H388.4V151.497H385ZM386.3 155.253V151.294H387V155.253H386.3ZM389.1 155.253V150.888H389.8V155.253H389.1ZM391.2 155.253L389.3 150.888H390.1L391.4 154.136L392.7 150.888H393.5L391.6 155.253H391.2ZM392.9 155.253V150.888H393.6V155.253H392.9Z" fill="white"/>
<path d="M230.5 142.565C219 142.565 210.6 150.888 210.6 162.46V162.866C210.6 174.539 218.8 182.761 230.5 182.761C242.2 182.761 250.3 174.539 250.3 162.764V162.358C250.3 150.685 242.1 142.565 230.5 142.565ZM218.7 162.46C218.7 154.136 223.2 148.96 230.5 148.96C237.8 148.96 242.2 154.238 242.2 162.46V162.866C242.2 171.088 237.6 176.468 230.6 176.468C223.6 176.468 218.7 170.885 218.7 162.967V162.46Z" fill="white"/>
<path d="M286.4 141.042C285.1 140.636 284.1 140.535 282.5 140.535C276.3 140.535 272.7 144.087 272.7 150.381V153.527H261.9V150.076C261.9 146.93 263.8 146.219 265.3 146.219C266.5 146.219 267.5 146.524 268.1 146.727C268.2 146.727 268.3 146.727 268.4 146.727C268.5 146.625 268.5 146.625 268.5 146.524V141.448C268.5 141.347 268.4 141.245 268.3 141.144C267 140.738 266 140.636 264.5 140.636C258.2 140.636 254.7 144.087 254.7 150.482V182.05C254.7 182.254 254.8 182.355 255 182.355H261.5C261.7 182.355 261.8 182.254 261.8 182.05V158.907H272.6V181.847C272.6 182.05 272.7 182.152 272.9 182.152H279.4C279.6 182.152 279.7 182.05 279.7 181.847V158.907H285.8C286 158.907 286.1 158.806 286.1 158.603V153.73C286.1 153.527 286 153.426 285.8 153.426H279.7V150.076C279.7 146.93 281.6 146.219 283.1 146.219C284.4 146.219 285.4 146.524 286 146.727C286.1 146.727 286.2 146.727 286.3 146.727C286.4 146.727 286.4 146.625 286.4 146.524V141.448C286.6 141.245 286.6 141.144 286.4 141.042Z" fill="white"/>
<path d="M305.7 158.704C299.1 157.79 297.9 156.268 297.9 153.324C297.9 150.381 300.3 148.553 304.3 148.553C308.7 148.553 310.8 150.178 311.5 154.035C311.5 154.136 311.6 154.238 311.8 154.238H318.4C318.5 154.238 318.6 154.238 318.6 154.136C318.7 154.035 318.7 154.035 318.7 153.933C317.9 146.422 313 142.463 304.3 142.463C296.2 142.463 290.5 147.132 290.5 153.832C290.5 160.531 294.4 164.084 304.4 165.403C311.1 166.52 312.2 168.043 312.2 170.986C312.2 174.336 309.4 176.569 305.2 176.569C298.7 176.569 297.3 173.321 296.9 169.768C296.9 169.667 296.8 169.464 296.6 169.464H289.7C289.6 169.464 289.5 169.464 289.5 169.565C289.5 169.667 289.4 169.667 289.4 169.768C289.8 175.554 292.9 182.558 305.2 182.558C313.6 182.558 319.7 177.381 319.7 170.377C319.8 162.358 314.4 159.922 305.7 158.704Z" fill="white"/>
<path d="M347.6 156.268C345.2 154.035 341.9 152.817 338.1 152.817C329.6 152.817 323.7 158.907 323.7 167.637V168.043C323.7 176.772 329.6 182.66 338.3 182.66C345.8 182.66 350.7 179.208 351.6 173.22C351.6 173.118 351.6 173.017 351.5 173.017C351.4 172.915 351.4 172.915 351.3 172.915H345C344.9 172.915 344.7 173.017 344.7 173.118C344.2 175.859 342.1 177.178 338.5 177.178C334 177.178 331.3 174.438 331 169.464H351.4C351.6 169.464 351.7 169.362 351.7 169.159V167.231C351.7 162.561 350.3 158.806 347.6 156.268ZM331.2 164.592C331.9 160.531 334.4 158.197 338.1 158.197C342.1 158.197 344.3 160.328 344.6 164.592H331.2Z" fill="white"/>
<path d="M384.1 171.189C384 171.088 384 171.088 383.9 171.088H377.9C377.7 171.088 377.6 171.189 377.6 171.392C377.3 174.844 374.7 177.178 371.1 177.178C366.3 177.178 363.6 173.828 363.6 168.144V167.738C363.6 162.257 366.5 158.806 371 158.806C374.6 158.806 376.7 160.531 377.2 163.881C377.2 163.982 377.3 164.185 377.5 164.185H383.8C383.9 164.185 384 164.185 384 164.084C384.1 163.982 384.1 163.982 384.1 163.881C383.4 156.978 378.6 153.02 370.9 153.02C362.4 153.02 356.3 159.313 356.3 167.941V168.347C356.3 177.077 362.2 182.964 370.9 182.964C378.5 182.964 383.8 178.498 384.3 171.595C384.2 171.392 384.2 171.291 384.1 171.189Z" fill="white"/>
<path d="M520 220.927H0V393.081H520V220.927Z" fill="url(#paint2_linear_3119_6466)"/>
<path d="M440.801 359.906V252.786H461.329V359.906H440.801ZM371.555 359.906V252.786H392.083V359.906H371.555ZM388.325 315.444V297.101H444.56V315.444H388.325Z" fill="white"/>
<path d="M304.138 359.869V268.157H324.666V359.869H304.138ZM273.635 271.092V252.749H355.169V271.092H273.635Z" fill="white"/>
<path d="M224.729 362.694C215.381 362.694 207.478 361.178 201.021 358.145C194.66 355.112 189.793 350.955 186.42 345.672C183.047 340.292 181.36 334.226 181.36 327.476H201.455C201.455 330.313 202.226 333.101 203.768 335.84C205.31 338.482 207.767 340.634 211.14 342.297C214.61 343.96 219.14 344.792 224.729 344.792C229.741 344.792 233.933 344.058 237.306 342.591C240.68 341.123 243.185 339.215 244.824 336.868C246.462 334.422 247.281 331.683 247.281 328.65C247.281 324.835 245.691 321.802 242.511 319.552C239.33 317.204 234.415 315.737 227.765 315.15L218.513 314.416C208.394 313.536 200.298 310.357 194.226 304.878C188.251 299.302 185.264 291.965 185.264 282.867C185.264 276.019 186.854 270.15 190.034 265.258C193.215 260.269 197.648 256.454 203.334 253.813C209.117 251.073 215.863 249.704 223.573 249.704C231.572 249.704 238.463 251.122 244.246 253.959C250.028 256.796 254.51 260.807 257.69 265.992C260.87 271.079 262.461 277.095 262.461 284.041H242.366C242.366 281.106 241.643 278.416 240.198 275.97C238.848 273.427 236.776 271.421 233.981 269.954C231.283 268.389 227.813 267.606 223.573 267.606C219.525 267.606 216.152 268.291 213.453 269.661C210.755 271.03 208.731 272.889 207.382 275.237C206.032 277.585 205.358 280.128 205.358 282.867C205.358 286.193 206.563 289.128 208.972 291.672C211.381 294.117 215.188 295.536 220.393 295.927L229.645 296.808C237.162 297.394 243.764 299.009 249.45 301.65C255.136 304.291 259.521 307.862 262.605 312.362C265.786 316.862 267.376 322.291 267.376 328.65C267.376 335.4 265.641 341.368 262.171 346.553C258.702 351.64 253.739 355.602 247.281 358.438C240.921 361.275 233.403 362.694 224.729 362.694Z" fill="white"/>
<path d="M113.802 362.694C104.26 362.694 95.9721 360.982 88.9366 357.558C81.9976 354.134 76.215 349.683 71.589 344.205C67.0593 338.629 63.638 332.661 61.325 326.302C59.1083 319.846 58 313.634 58 307.666V304.438C58 297.884 59.1565 291.378 61.4695 284.922C63.7825 278.367 67.2521 272.449 71.8781 267.166C76.6005 261.883 82.4313 257.677 89.3703 254.546C96.3094 251.318 104.453 249.704 113.802 249.704C123.054 249.704 131.149 251.318 138.088 254.546C145.027 257.677 150.81 261.883 155.436 267.166C160.158 272.449 163.676 278.367 165.989 284.922C168.302 291.378 169.459 297.884 169.459 304.438V307.666C169.459 313.634 168.302 319.846 165.989 326.302C163.772 332.661 160.351 338.629 155.725 344.205C151.195 349.683 145.413 354.134 138.377 357.558C131.438 360.982 123.246 362.694 113.802 362.694ZM113.802 343.324C119.199 343.324 124.017 342.346 128.258 340.389C132.595 338.433 136.257 335.743 139.245 332.319C142.329 328.797 144.642 324.835 146.184 320.433C147.822 315.933 148.641 311.188 148.641 306.199C148.641 300.818 147.822 295.878 146.184 291.378C144.642 286.878 142.329 282.965 139.245 279.639C136.257 276.313 132.595 273.72 128.258 271.862C123.921 270.003 119.102 269.074 113.802 269.074C108.405 269.074 103.538 270.003 99.2007 271.862C94.8638 273.72 91.1533 276.313 88.0693 279.639C85.0816 282.965 82.7686 286.878 81.1302 291.378C79.5882 295.878 78.8172 300.818 78.8172 306.199C78.8172 311.188 79.5882 315.933 81.1302 320.433C82.7686 324.835 85.0816 328.797 88.0693 332.319C91.1533 335.743 94.8638 338.433 99.2007 340.389C103.538 342.346 108.405 343.324 113.802 343.324Z" fill="white"/>
</g>
</g>
<defs>
<linearGradient id="paint0_linear_3119_6466" x1="259.999" y1="597.252" x2="259.999" y2="84.2309" gradientUnits="userSpaceOnUse">
<stop stop-color="#593D8F"/>
<stop offset="1" stop-color="#9869F5"/>
</linearGradient>
<linearGradient id="paint1_linear_3119_6466" x1="259.999" y1="559.536" x2="259.999" y2="115.602" gradientUnits="userSpaceOnUse">
<stop stop-color="#9869F5"/>
<stop offset="1" stop-color="#593D8F"/>
</linearGradient>
<linearGradient id="paint2_linear_3119_6466" x1="260" y1="183.977" x2="260" y2="467.054" gradientUnits="userSpaceOnUse">
<stop stop-color="#9869F5"/>
<stop offset="0.7661" stop-color="#593D8F"/>
</linearGradient>
<clipPath id="clip0_3119_6466">
<rect width="520" height="600" fill="white"/>
</clipPath>
<clipPath id="clip1_3119_6466">
<rect width="520" height="600" fill="white"/>
</clipPath>
<clipPath id="clip2_3119_6466">
<rect width="118.67" height="120.961" fill="white" transform="translate(202.3 417.036)"/>
</clipPath>
</defs>
</svg>
