<svg width="520" height="600" viewBox="0 0 520 600" fill="none" xmlns="http://www.w3.org/2000/svg">
<path d="M0 165.2V434.698C0 445.559 5.7 455.608 15 461.09L245 595.889C254.3 601.37 265.7 601.37 275 595.889L505 461.09C514.3 455.608 520 445.559 520 434.698V165.2C520 154.339 514.3 144.29 505 138.809L275 4.11098C265.7 -1.37033 254.3 -1.37033 245 4.11098L15 138.809C5.7 144.29 0 154.339 0 165.2Z" fill="url(#paint0_linear_831_13037)"/>
<path d="M31 183.37V416.63C31 427.491 36.7 437.54 46 443.021L245 559.651C254.3 565.133 265.7 565.133 275 559.651L474 443.021C483.3 437.54 489 427.491 489 416.63V183.37C489 172.509 483.3 162.46 474 156.978L275 40.4498C265.7 34.9685 254.3 34.9685 245 40.4498L46 156.978C36.7 162.46 31 172.509 31 183.37Z" fill="url(#paint1_linear_831_13037)"/>
<path d="M520 220.927H0V393.08H520V220.927Z" fill="url(#paint2_linear_831_13037)"/>
<path d="M76.7996 361.919C67.1996 361.919 58.7996 360.193 51.7996 356.843C44.6996 353.392 38.8996 348.926 34.2996 343.242C29.6996 337.659 26.1996 331.568 23.9996 325.072C21.7996 318.576 20.5996 312.384 20.5996 306.293V303.045C20.5996 296.447 21.7996 289.85 24.0996 283.252C26.3996 276.654 29.9996 270.766 34.6996 265.387C39.3996 260.007 45.2996 255.744 52.2996 252.597C59.2996 249.349 67.4996 247.826 76.7996 247.826C86.0996 247.826 94.2996 249.45 101.4 252.597C108.5 255.845 114.3 260.108 119.1 265.387C123.8 270.766 127.3 276.654 129.7 283.252C132 289.85 133.2 296.447 133.2 303.045V306.293C133.2 312.282 132.1 318.576 129.8 325.072C127.5 331.568 124.1 337.557 119.4 343.242C114.8 348.824 108.9 353.392 101.9 356.843C94.7996 360.193 86.4996 361.919 76.7996 361.919ZM76.7996 342.328C82.1996 342.328 87.1996 341.313 91.4996 339.384C95.8996 337.456 99.5996 334.715 102.7 331.162C105.8 327.61 108.1 323.651 109.7 319.185C111.3 314.718 112.1 309.948 112.1 304.872C112.1 299.493 111.3 294.62 109.6 290.053C107.9 285.485 105.6 281.526 102.5 278.075C99.3996 274.624 95.6996 271.985 91.3996 270.157C87.0996 268.33 82.1996 267.315 76.6996 267.315C71.2996 267.315 66.4996 268.229 62.0996 270.157C57.6996 271.985 53.9996 274.725 50.8996 278.075C47.7996 281.526 45.4996 285.485 43.8996 290.053C42.2996 294.62 41.4996 299.493 41.4996 304.872C41.4996 309.948 42.2996 314.718 43.8996 319.185C45.4996 323.651 47.7996 327.711 50.8996 331.162C53.9996 334.715 57.6996 337.456 62.0996 339.384C66.5996 341.313 71.4996 342.328 76.7996 342.328Z" fill="white"/>
<path d="M189.299 361.919C179.999 361.919 171.999 360.396 165.499 357.351C158.999 354.306 153.999 350.042 150.699 344.663C147.299 339.283 145.699 333.192 145.699 326.392H165.999C165.999 329.234 166.799 332.076 168.299 334.715C169.899 337.456 172.399 339.587 175.799 341.313C179.299 343.038 183.799 343.851 189.299 343.851C194.499 343.851 198.699 343.14 202.099 341.617C205.499 340.095 207.999 338.166 209.699 335.73C211.399 333.294 212.299 330.553 212.299 327.508C212.299 323.752 210.699 320.707 207.499 318.373C204.299 316.038 199.299 314.617 192.499 314.008L182.999 313.196C172.799 312.282 164.599 309.034 158.499 303.451C152.399 297.868 149.399 290.459 149.399 281.323C149.399 274.421 150.999 268.432 154.199 263.458C157.399 258.484 161.899 254.627 167.699 251.886C173.499 249.146 180.299 247.826 188.099 247.826C196.199 247.826 203.199 249.247 209.099 252.089C214.999 254.932 219.499 258.992 222.699 264.169C225.899 269.345 227.399 275.436 227.399 282.44H207.099C207.099 279.597 206.399 276.857 205.099 274.319C203.699 271.782 201.599 269.751 198.799 268.127C195.999 266.503 192.399 265.793 188.099 265.793C183.999 265.793 180.599 266.503 177.999 267.924C175.299 269.345 173.299 271.274 171.899 273.507C170.499 275.842 169.899 278.379 169.899 281.12C169.899 284.47 171.099 287.413 173.599 289.951C175.999 292.489 179.899 293.91 185.099 294.316L194.299 295.229C201.999 295.838 208.699 297.462 214.399 300.102C220.099 302.741 224.499 306.395 227.799 310.963C230.999 315.53 232.599 321.012 232.599 327.407C232.599 334.207 230.799 340.196 227.299 345.373C223.799 350.55 218.799 354.61 212.299 357.452C205.799 360.497 198.099 361.919 189.299 361.919Z" fill="white"/>
<path d="M268.799 359.076L241.799 250.871H263.299L285.299 344.967L279.599 341.516H294.199L287.799 344.967L305.199 255.033H322.999L301.399 359.076H268.799ZM332.599 359.076L309.099 255.033H327.599L347.599 344.967L341.299 341.516H355.599L350.099 344.967L369.399 250.871H389.799L365.599 359.076H332.599Z" fill="white"/>
<path d="M396 359.076L432.2 250.871H466.2L503.6 359.076H482.1L450.6 265.285L458 268.533H439.8L447.4 265.285L416.7 359.076H396ZM421.4 330.452L428 312.485H471L477.6 330.452H421.4Z" fill="white"/>
<path d="M299.402 509.914C299.002 509.914 298.602 509.813 298.202 509.711C297.002 509.407 296.002 508.595 295.402 507.579C294.802 506.463 294.602 505.245 294.902 504.128C295.202 503.012 296.002 501.895 297.002 501.286C298.102 500.677 299.302 500.474 300.402 500.779C301.602 501.083 302.602 501.895 303.202 502.91C303.802 504.027 304.002 505.245 303.702 506.361C303.402 507.579 302.602 508.595 301.602 509.204C301.002 509.711 300.202 509.914 299.402 509.914ZM299.402 503.113C299.002 503.113 298.601 503.215 298.301 503.418C297.801 503.722 297.401 504.23 297.301 504.737C297.101 505.346 297.202 505.955 297.502 506.463C297.802 506.97 298.301 507.376 298.801 507.478C299.401 507.681 300.002 507.579 300.502 507.275C301.002 506.97 301.402 506.463 301.502 505.955C301.702 505.346 301.601 504.737 301.301 504.23C301.001 503.722 300.502 503.316 300.002 503.215C299.802 503.113 299.602 503.113 299.402 503.113Z" fill="white"/>
<path d="M285.5 468.906C279.4 468.906 274.5 473.88 274.5 480.071C274.5 486.263 279.4 491.237 285.5 491.237C291.6 491.237 296.5 486.263 296.5 480.071C296.5 473.88 291.6 468.906 285.5 468.906ZM286 482.711C284.5 483.015 283.1 482 282.8 480.579C282.5 479.056 283.5 477.635 284.9 477.331C285.2 477.229 285.6 477.229 285.9 477.331V477.432C286.1 478.549 287 479.361 288.1 479.564C288.4 480.985 287.5 482.406 286 482.711Z" fill="white"/>
<path d="M234.5 468.906C228.4 468.906 223.5 473.88 223.5 480.071C223.5 486.263 228.4 491.237 234.5 491.237C240.6 491.237 245.5 486.263 245.5 480.071C245.5 473.88 240.6 468.906 234.5 468.906ZM235 482.711C233.5 483.015 232.1 482 231.8 480.579C231.5 479.056 232.5 477.635 233.9 477.331C234.2 477.229 234.6 477.229 234.9 477.331V477.432C235.1 478.549 236 479.361 237.1 479.564C237.4 480.985 236.5 482.406 235 482.711Z" fill="white"/>
<path d="M259.9 450.838C255.5 450.838 252 454.188 252 458.451C252 462.613 255.6 466.064 259.9 466.064C264.3 466.064 267.8 462.714 267.8 458.451C267.8 454.188 264.3 450.838 259.9 450.838ZM259.9 464.338C259.4 464.338 258.6 463.425 258.2 461.902C258.7 461.902 259.3 462.004 259.8 462.004C260.4 462.004 261 462.004 261.6 461.902C261.2 463.425 260.5 464.338 259.9 464.338ZM259.8 460.379C259.1 460.379 258.4 460.379 257.8 460.278C257.7 459.669 257.7 459.06 257.7 458.349C257.7 457.639 257.7 457.03 257.8 456.421C258.4 456.319 259.1 456.319 259.8 456.319C260.6 456.319 261.3 456.421 261.9 456.421C262 457.03 262 457.639 262 458.248C262 458.958 262 459.567 261.9 460.075C261.3 460.278 260.6 460.379 259.8 460.379ZM253.7 458.349C253.7 457.842 254.7 457.233 256.3 456.725C256.3 457.233 256.2 457.74 256.2 458.349C256.2 458.857 256.2 459.466 256.3 459.973C254.7 459.567 253.7 458.857 253.7 458.349ZM259.9 452.36C260.5 452.36 261.2 453.274 261.6 454.797C261 454.695 260.4 454.695 259.8 454.695C259.3 454.695 258.7 454.695 258.2 454.797C258.7 453.274 259.4 452.36 259.9 452.36ZM263.6 456.827C265.1 457.233 266 457.842 266 458.349C266 458.857 265.1 459.466 263.6 459.872C263.6 459.364 263.7 458.857 263.7 458.349C263.7 457.842 263.6 457.334 263.6 456.827ZM265.8 456.015C265.1 455.609 264.3 455.406 263.4 455.203C263.2 454.391 263 453.579 262.6 452.97C264 453.579 265.1 454.594 265.8 456.015ZM257.3 452.868C257 453.477 256.7 454.188 256.5 455C255.6 455.203 254.8 455.406 254.1 455.812C254.8 454.594 255.9 453.477 257.3 452.868ZM254.2 460.887C254.9 461.191 255.7 461.496 256.6 461.699C256.8 462.511 257 463.222 257.4 463.831C255.9 463.222 254.8 462.207 254.2 460.887ZM262.6 463.831C262.9 463.222 263.2 462.41 263.4 461.597C264.3 461.394 265.2 461.09 265.8 460.785C265.1 462.105 264 463.222 262.6 463.831Z" fill="white"/>
<path d="M258.001 503.113C257.601 503.113 257.201 502.809 257.201 502.301V498.647C257.201 498.241 257.501 497.835 258.001 497.835C258.401 497.835 258.801 498.139 258.801 498.647V502.301C258.801 502.809 258.401 503.113 258.001 503.113Z" fill="white"/>
<path d="M262.001 503.113C261.601 503.113 261.201 502.809 261.201 502.301V498.647C261.201 498.241 261.501 497.835 262.001 497.835C262.401 497.835 262.801 498.139 262.801 498.647V502.301C262.801 502.809 262.401 503.113 262.001 503.113Z" fill="white"/>
<path d="M273.3 516.106C273 516.106 272.8 516.005 272.6 515.802L269.6 511.234C269.4 510.828 269.5 510.422 269.8 510.117C270.2 509.914 270.6 510.016 270.9 510.32L273.9 514.888C274.1 515.294 274 515.7 273.7 516.005C273.6 516.106 273.5 516.106 273.3 516.106Z" fill="white"/>
<path d="M275.001 509.407C274.701 509.407 274.501 509.305 274.301 509.102L273.401 507.681C273.201 507.275 273.301 506.869 273.601 506.565C274.001 506.362 274.401 506.463 274.701 506.768L275.601 508.189C275.801 508.595 275.701 509.001 275.401 509.305C275.301 509.305 275.101 509.407 275.001 509.407Z" fill="white"/>
<path d="M282.001 512.249C281.701 512.249 281.501 512.147 281.301 511.944L278.001 506.97C277.801 506.564 277.901 506.158 278.201 505.854C278.601 505.651 279.001 505.752 279.301 506.057L282.601 511.03C282.801 511.436 282.701 511.843 282.401 512.147C282.301 512.249 282.101 512.249 282.001 512.249Z" fill="white"/>
<path d="M246.7 516.106C246.6 516.106 246.4 516.106 246.3 516.004C245.9 515.801 245.8 515.294 246.1 514.888L249.1 510.32C249.3 509.914 249.8 509.812 250.2 510.117C250.6 510.32 250.7 510.828 250.4 511.234L247.4 515.801C247.2 516.004 246.9 516.106 246.7 516.106Z" fill="white"/>
<path d="M245.001 509.406C244.901 509.406 244.701 509.406 244.601 509.305C244.201 509.102 244.101 508.594 244.401 508.188L245.301 506.767C245.501 506.361 246.001 506.26 246.401 506.564C246.801 506.767 246.901 507.275 246.601 507.681L245.701 509.102C245.501 509.305 245.301 509.406 245.001 509.406Z" fill="white"/>
<path d="M238.001 512.249C237.901 512.249 237.701 512.249 237.601 512.147C237.201 511.944 237.101 511.437 237.401 511.031L240.701 506.057C240.901 505.651 241.401 505.549 241.801 505.854C242.201 506.057 242.301 506.564 242.001 506.97L238.701 511.944C238.501 512.147 238.301 512.249 238.001 512.249Z" fill="white"/>
<path d="M234.002 496.109C225.302 496.109 218.102 488.902 218.102 479.97C218.102 471.139 225.202 463.831 234.002 463.831C242.802 463.831 249.902 471.037 249.902 479.97C249.902 488.902 242.802 496.109 234.002 496.109ZM234.002 465.556C226.102 465.556 219.702 472.053 219.702 480.071C219.702 488.09 226.102 494.587 234.002 494.587C241.902 494.587 248.302 488.09 248.302 480.071C248.302 472.053 241.902 465.556 234.002 465.556Z" fill="white"/>
<path d="M285.002 496.109C276.302 496.109 269.102 488.902 269.102 479.97C269.102 471.139 276.202 463.831 285.002 463.831C293.702 463.831 300.902 471.037 300.902 479.97C300.902 488.902 293.802 496.109 285.002 496.109ZM285.002 465.556C277.102 465.556 270.702 472.053 270.702 480.071C270.702 488.09 277.102 494.587 285.002 494.587C292.902 494.587 299.302 488.09 299.302 480.071C299.302 472.053 292.902 465.556 285.002 465.556Z" fill="white"/>
<path d="M271.2 460.684C270.8 460.684 270.5 460.379 270.4 459.973C270.3 459.567 270.6 459.161 271 459.059C271.1 459.059 276.9 458.044 281.6 452.969C281.9 452.665 282.4 452.665 282.7 452.969C283 453.274 283 453.781 282.7 454.086C277.6 459.567 271.5 460.582 271.2 460.582C271.2 460.684 271.2 460.684 271.2 460.684Z" fill="white"/>
<path d="M272.101 456.522C271.701 456.522 271.401 456.217 271.301 455.811C271.201 455.405 271.501 454.999 271.901 454.898C271.901 454.898 274.601 454.39 276.901 452.056C277.201 451.751 277.701 451.751 278.001 452.056C278.301 452.36 278.301 452.868 278.001 453.172C275.401 455.913 272.301 456.522 272.101 456.522Z" fill="white"/>
<path d="M272.999 452.462C272.899 452.462 272.799 452.461 272.699 452.36C272.599 452.36 272.499 452.258 272.399 452.157C272.299 452.055 272.199 451.852 272.199 451.548C272.199 451.345 272.299 451.142 272.399 451.04C272.699 450.736 273.199 450.736 273.499 451.04C273.599 451.142 273.699 451.345 273.699 451.548C273.699 451.649 273.699 451.751 273.599 451.852C273.599 451.954 273.499 452.055 273.399 452.157C273.299 452.258 273.199 452.258 273.199 452.36C273.199 452.461 273.099 452.462 272.999 452.462Z" fill="white"/>
<path d="M248.7 460.684H248.6C248.3 460.684 242.2 459.567 237.1 454.187C236.8 453.883 236.8 453.375 237.1 453.071C237.4 452.766 237.9 452.766 238.2 453.071C243 458.146 248.7 459.161 248.8 459.161C249.2 459.263 249.5 459.669 249.4 460.075C249.4 460.379 249.1 460.684 248.7 460.684Z" fill="white"/>
<path d="M247.799 456.522H247.699C247.599 456.522 244.399 456.014 241.799 453.172C241.499 452.868 241.499 452.36 241.799 452.056C242.099 451.751 242.599 451.751 242.899 452.056C245.099 454.492 247.799 454.898 247.899 454.898C248.299 454.999 248.599 455.405 248.499 455.811C248.499 456.217 248.099 456.522 247.799 456.522Z" fill="white"/>
<path d="M246.8 452.462C246.7 452.462 246.6 452.461 246.5 452.36C246.4 452.36 246.3 452.258 246.2 452.157C246.1 452.055 246 451.852 246 451.548C246 451.345 246.1 451.142 246.2 451.04C246.5 450.736 247 450.736 247.3 451.04C247.4 451.142 247.5 451.345 247.5 451.548C247.5 451.649 247.5 451.751 247.4 451.852C247.4 451.954 247.3 452.055 247.2 452.157C247.1 452.258 247 452.258 247 452.36C247 452.461 246.9 452.462 246.8 452.462Z" fill="white"/>
<path d="M221.302 509.914C220.902 509.914 220.502 509.813 220.102 509.711C218.902 509.407 217.902 508.595 217.302 507.579C216.702 506.463 216.502 505.245 216.802 504.128C217.102 503.012 217.902 501.895 218.902 501.286C220.002 500.677 221.202 500.474 222.302 500.779C223.502 501.083 224.502 501.895 225.102 502.91C225.702 504.027 225.902 505.245 225.602 506.361C225.302 507.579 224.502 508.595 223.502 509.204C222.902 509.711 222.102 509.914 221.302 509.914ZM221.302 503.113C220.902 503.113 220.502 503.215 220.202 503.418C219.702 503.722 219.302 504.23 219.202 504.737C219.002 505.346 219.102 505.955 219.402 506.463C219.702 506.97 220.202 507.376 220.702 507.478C221.302 507.681 221.902 507.579 222.402 507.275C222.902 506.97 223.302 506.463 223.402 505.955C223.602 505.346 223.502 504.737 223.202 504.23C222.902 503.722 222.402 503.316 221.902 503.215C221.702 503.113 221.502 503.113 221.302 503.113Z" fill="white"/>
<path d="M299.401 509.914C299.001 509.914 298.601 509.813 298.201 509.711C298.001 509.711 297.901 509.609 297.701 509.508C297.801 509.914 297.801 510.219 297.801 510.625C295.901 510.523 292.901 510.219 291.601 509.203C291.201 508.899 290.601 508.899 290.201 509.203C289.801 509.508 289.601 510.117 289.801 510.523C290.301 511.944 290.801 513.568 291.001 514.685C288.901 514.38 287.001 513.974 286.501 513.568C286.301 513.061 285.801 512.756 285.301 512.858C284.701 512.959 284.301 513.467 284.301 514.076C284.301 515.7 284.101 517.425 283.901 518.339L280.901 517.121C280.501 517.019 280.101 517.019 279.801 517.222C279.501 517.425 279.301 517.831 279.301 518.237C279.301 519.76 279.101 521.486 278.801 522.095C277.701 522.095 275.501 521.79 274.801 520.572C274.501 520.065 273.801 519.862 273.301 520.166C272.801 520.471 272.501 521.08 272.701 521.689C272.701 521.79 273.501 523.82 272.401 525.647C270.901 525.14 269.301 524.531 268.901 524.328C268.501 523.82 267.901 523.719 267.501 523.922C266.601 524.328 266.801 525.241 267.001 525.952C267.401 527.677 267.501 528.591 267.401 529.099C266.001 528.896 264.601 528.388 264.301 527.881C263.801 526.967 263.201 526.967 262.801 526.967C261.901 527.17 261.801 528.084 261.701 528.896C261.601 530.114 261.401 532.245 260.001 533.768C258.601 532.347 258.401 530.114 258.301 528.896C258.201 528.084 258.101 527.17 257.201 526.967C256.801 526.865 256.201 526.967 255.701 527.881C255.401 528.388 254.001 528.896 252.601 529.099C252.501 528.693 252.601 527.779 253.001 525.952C253.201 525.241 253.401 524.328 252.501 523.922C252.101 523.719 251.501 523.82 251.101 524.328C250.701 524.632 249.101 525.241 247.601 525.647C246.601 523.922 247.301 521.79 247.301 521.689C247.501 521.08 247.301 520.471 246.701 520.166C246.201 519.862 245.501 520.065 245.201 520.572C244.501 521.79 242.301 522.095 241.201 522.095C240.901 521.486 240.701 519.76 240.701 518.237C240.701 517.831 240.501 517.425 240.201 517.222C239.901 517.019 239.501 516.918 239.101 517.121L236.101 518.339C235.901 517.425 235.701 515.7 235.701 514.076C235.701 513.467 235.301 512.959 234.701 512.858C234.201 512.756 233.701 513.061 233.501 513.568C233.001 513.974 231.101 514.38 229.001 514.685C229.201 513.568 229.701 511.944 230.201 510.523C230.401 510.016 230.201 509.508 229.801 509.203C229.401 508.899 228.801 508.899 228.401 509.203C227.101 510.219 224.101 510.523 222.201 510.625C222.201 510.32 222.301 510.016 222.301 509.711C222.001 509.813 221.701 509.813 221.401 509.813C221.001 509.813 220.601 509.711 220.201 509.61C220.101 509.61 220.001 509.508 219.901 509.508C219.801 510.422 219.801 511.335 219.901 511.944C220.001 512.452 220.501 512.858 221.001 512.858C221.501 512.858 224.501 512.959 227.101 512.249C226.701 513.873 226.301 515.497 226.501 516.309C226.601 516.816 227.201 517.222 227.701 517.222C230.101 517.019 232.001 516.715 233.301 516.207C233.501 518.745 234.001 520.268 234.901 520.775C235.201 520.978 235.601 520.978 236.001 520.877L238.401 519.862C238.701 524.125 240.101 524.328 240.601 524.328H240.701C241.001 524.328 242.901 524.429 244.701 523.617C244.801 524.835 245.201 526.256 246.201 527.474C246.501 527.779 247.001 527.982 247.401 527.881C248.601 527.475 249.601 527.17 250.301 526.865C250.101 528.287 250.101 529.911 251.101 530.824C251.301 531.027 251.701 531.129 252.001 531.129C252.501 531.129 254.601 530.824 256.201 530.012C256.501 531.738 257.201 534.275 259.401 535.798L259.501 535.899C259.601 535.899 259.701 536.001 259.701 536.001C259.801 536.001 259.901 536.001 259.901 536.001C260.001 536.001 260.101 536.001 260.101 536.001C260.101 536.001 260.101 536.001 260.201 536.001C260.301 536.001 260.401 536.001 260.401 535.899C260.401 535.899 260.501 535.899 260.501 535.798C262.701 534.174 263.401 531.738 263.701 530.012C265.301 530.824 267.301 531.129 267.901 531.129C268.201 531.129 268.601 531.027 268.801 530.824C269.801 529.911 269.801 528.287 269.601 526.865C270.301 527.17 271.301 527.475 272.501 527.881C272.901 527.982 273.401 527.88 273.701 527.474C274.801 526.256 275.201 524.835 275.201 523.617C277.001 524.328 278.901 524.328 279.201 524.328H279.301C279.801 524.226 281.201 524.125 281.501 519.862L283.901 520.877C284.201 520.978 284.601 520.978 285.001 520.775C285.901 520.268 286.401 518.745 286.601 516.207C287.901 516.715 289.801 517.019 292.201 517.222C292.801 517.222 293.301 516.918 293.401 516.309C293.601 515.497 293.301 513.873 292.801 512.249C295.401 512.959 298.501 512.959 298.901 512.858C299.401 512.858 299.901 512.452 300.001 511.944C300.101 511.335 300.101 510.523 300.001 509.61C299.901 509.914 299.601 509.914 299.401 509.914Z" fill="white"/>
<path d="M322.401 424.954C322.301 424.548 321.901 424.142 321.501 424.04C320.601 423.837 298.601 419.371 284.901 435.409C284.801 435.51 284.301 436.119 283.601 437.033C277.601 434.089 271.001 432.262 264.301 431.755C264.501 432.465 264.401 433.176 264.301 433.988C264.301 434.089 264.301 434.089 264.201 434.191C270.501 434.698 276.601 436.424 282.301 439.165C280.801 441.499 279.401 444.747 279.601 447.691C279.701 448.3 280.201 448.808 280.901 448.808C281.501 448.706 282.001 448.199 282.001 447.488C281.601 443.022 286.701 437.236 286.801 437.134C297.201 424.954 313.101 425.461 319.001 426.172C316.101 429.522 312.001 436.119 306.801 445.661C302.101 454.187 295.501 458.146 294.501 458.654L276.401 462.409C276.101 462.511 275.701 462.511 275.401 462.612C275.201 462.612 275.101 462.714 274.901 462.714C274.801 462.714 274.601 462.815 274.501 462.815C274.301 462.917 274.001 462.917 273.801 463.018C273.701 463.018 273.701 463.018 273.601 463.12C269.101 464.744 265.301 467.688 262.701 471.849C262.701 471.849 262.601 471.951 262.601 472.052C261.601 473.575 260.901 475.199 260.301 476.823C259.701 475.098 258.901 473.473 258.001 472.052C258.001 471.951 257.901 471.951 257.901 471.849C255.301 467.789 251.401 464.744 247.001 463.12C246.901 463.12 246.901 463.12 246.801 463.018C246.601 462.917 246.401 462.815 246.101 462.815C246.001 462.815 245.801 462.714 245.701 462.714C245.501 462.714 245.401 462.612 245.201 462.612C244.901 462.511 244.501 462.409 244.201 462.409L226.201 458.654H226.101H226.001C225.001 458.146 218.401 454.187 213.701 445.661C208.501 436.119 204.401 429.522 201.501 426.172C207.301 425.461 223.301 424.954 233.701 437.134C235.101 438.759 238.801 443.732 238.401 447.387C238.301 447.996 238.801 448.605 239.501 448.706C240.101 448.706 240.701 448.3 240.801 447.59C241.101 444.646 239.601 441.499 238.101 439.063C243.601 436.424 249.701 434.698 255.901 434.191C255.701 433.379 255.601 432.567 255.801 431.856C249.201 432.465 242.701 434.191 236.801 437.134C236.101 436.221 235.601 435.612 235.501 435.51C221.701 419.371 199.801 423.939 198.901 424.142C198.501 424.243 198.101 424.548 198.001 425.055C197.901 425.461 198.001 425.969 198.401 426.273C200.201 427.796 204.101 432.567 211.801 446.778C212.601 448.3 213.501 449.62 214.301 450.838C214.301 450.838 214.301 450.838 214.201 450.939C213.901 451.345 213.201 452.157 212.401 453.071C208.401 457.74 204.901 462.003 204.401 463.83C204.301 464.338 204.501 464.947 205.001 465.15L207.501 466.47C206.301 468.703 204.201 472.661 204.101 474.184C204.101 474.692 204.401 475.199 204.901 475.402C205.001 475.402 205.801 475.605 206.701 475.707C205.101 478.752 203.401 482.304 203.401 483.523C203.401 484.132 203.801 484.639 204.401 484.741C204.501 484.741 206.201 484.944 207.801 484.132C208.801 487.684 211.701 496.211 217.901 503.012C218.301 502.403 218.801 501.895 219.401 501.591C219.501 501.591 219.601 501.489 219.601 501.489C212.201 493.267 209.701 482.101 209.601 482C209.501 481.594 209.201 481.188 208.801 481.086C208.401 480.985 207.901 481.086 207.601 481.391C207.201 481.898 206.601 482.101 206.101 482.203C206.901 480.376 208.501 477.229 209.901 474.489C210.201 473.981 210.101 473.372 209.601 472.966C209.201 472.56 208.601 472.56 208.101 472.966C207.701 473.27 207.101 473.372 206.601 473.372C207.201 471.849 208.701 469.007 210.001 466.673C210.201 466.368 210.201 466.064 210.101 465.759C210.001 465.455 209.801 465.15 209.501 465.049L207.001 463.729C208.301 461.597 212.301 456.928 214.101 454.695C214.701 453.984 215.301 453.375 215.601 452.868C217.801 455.507 219.901 457.436 221.601 458.755C215.201 463.221 211.401 470.53 211.401 478.447C211.401 491.643 222.001 502.403 235.001 502.403C247.401 502.403 257.701 492.557 258.601 480.173C258.801 481.391 259.001 482.609 259.001 483.827C258.901 491.135 251.301 497.733 251.301 497.733C250.901 498.038 250.801 498.647 251.001 499.053L259.101 519.862C259.301 520.369 259.801 520.674 260.301 520.572H260.401C260.901 520.572 261.301 520.268 261.501 519.862L269.601 499.053C269.801 498.545 269.601 498.038 269.301 497.733C269.201 497.632 261.601 491.135 261.601 483.827C261.601 482.609 261.701 481.391 262.001 480.173C262.901 492.557 273.101 502.403 285.601 502.403C298.601 502.403 309.201 491.643 309.201 478.447C309.201 470.53 305.401 463.221 299.001 458.755C300.701 457.436 302.901 455.507 305.001 452.868C305.401 453.274 305.901 453.984 306.501 454.695C308.301 456.827 312.301 461.496 313.601 463.729L311.101 465.049C310.801 465.15 310.601 465.455 310.501 465.759C310.401 466.064 310.501 466.368 310.601 466.673C311.901 469.007 313.401 471.849 314.001 473.372C313.501 473.372 312.901 473.27 312.501 472.966C312.101 472.661 311.401 472.661 311.001 472.966C310.601 473.372 310.501 473.981 310.701 474.489C312.201 477.229 313.801 480.477 314.501 482.203C314.001 482.101 313.401 481.797 313.001 481.391C312.701 481.086 312.301 480.985 311.801 481.086C311.401 481.188 311.101 481.492 311.001 482C311.001 482.101 308.401 493.064 301.201 501.286C302.001 501.591 302.601 501.997 303.101 502.707C309.001 496.008 311.801 487.786 312.801 484.335C314.401 485.147 316.101 484.944 316.201 484.944C316.801 484.842 317.201 484.335 317.201 483.726C317.201 482.609 315.501 478.955 313.901 475.91C314.801 475.91 315.501 475.707 315.701 475.605C316.201 475.402 316.601 474.996 316.501 474.387C316.401 472.864 314.301 468.906 313.101 466.673L315.601 465.353C316.101 465.049 316.301 464.541 316.201 464.033C315.701 462.206 312.101 457.943 308.201 453.274C307.401 452.36 306.801 451.65 306.401 451.142C306.401 451.142 306.401 451.142 306.301 451.041C307.201 449.823 308.001 448.503 308.801 446.981C316.501 432.77 320.401 427.999 322.201 426.476C322.401 425.867 322.501 425.36 322.401 424.954ZM234.901 499.865C223.201 499.865 213.601 490.12 213.601 478.244C213.601 471.037 217.101 464.338 223.001 460.278C223.801 460.481 224.401 460.684 225.101 460.785L225.401 460.887C225.401 460.887 225.401 460.887 225.501 460.887L243.501 464.643C243.801 464.744 244.101 464.744 244.401 464.846C244.501 464.846 244.701 464.947 244.801 464.947C244.901 464.947 245.101 465.049 245.201 465.049C245.401 465.15 245.601 465.15 245.801 465.252C245.901 465.252 245.901 465.252 246.001 465.353C246.201 465.455 246.501 465.556 246.701 465.658C250.401 467.18 253.501 469.718 255.601 472.966C256.001 474.692 256.201 476.417 256.201 478.244C256.201 490.12 246.601 499.865 234.901 499.865ZM266.801 498.85L260.001 516.309L253.201 498.85C254.601 497.53 258.101 493.876 260.001 489.308C261.801 493.978 265.301 497.53 266.801 498.85ZM306.401 478.244C306.401 490.12 296.801 499.865 285.101 499.865C273.401 499.865 263.801 490.12 263.801 478.244C263.801 476.519 264.001 474.692 264.401 472.966C266.501 469.718 269.601 467.079 273.301 465.658C273.501 465.556 273.801 465.455 274.001 465.353C274.101 465.353 274.101 465.353 274.201 465.252C274.401 465.15 274.601 465.15 274.801 465.049C274.901 465.049 275.101 464.947 275.201 464.947C275.301 464.947 275.501 464.846 275.601 464.846C275.901 464.744 276.201 464.744 276.501 464.643L294.501 460.887C294.501 460.887 294.501 460.887 294.601 460.887H294.801C295.501 460.785 296.201 460.582 296.901 460.379C302.901 464.338 306.401 471.037 306.401 478.244Z" fill="white"/>
<path d="M259.902 437.337C259.502 437.337 259.102 437.236 258.702 437.134C257.502 436.83 256.502 436.018 255.902 435.003C255.302 433.886 255.102 432.668 255.402 431.552C255.702 430.334 256.502 429.318 257.502 428.709C258.602 428.1 259.802 427.897 260.902 428.202C262.102 428.506 263.102 429.318 263.702 430.334C264.302 431.45 264.502 432.668 264.202 433.785C263.902 434.901 263.102 436.018 262.102 436.627C261.402 437.134 260.602 437.337 259.902 437.337ZM259.801 430.537C259.401 430.537 259.002 430.638 258.702 430.841C258.202 431.146 257.802 431.653 257.702 432.161C257.502 432.77 257.602 433.379 257.902 433.886C258.502 435.003 259.902 435.307 260.902 434.698C261.402 434.394 261.802 433.886 261.902 433.379C262.102 432.77 262.002 432.161 261.702 431.653C261.402 431.146 260.902 430.74 260.402 430.638C260.202 430.537 260.001 430.537 259.801 430.537Z" fill="white"/>
<path d="M299.402 509.914C299.002 509.914 298.602 509.813 298.202 509.711C297.002 509.407 296.002 508.595 295.402 507.579C294.802 506.463 294.602 505.245 294.902 504.128C295.202 503.012 296.002 501.895 297.002 501.286C298.102 500.677 299.302 500.474 300.402 500.779C301.602 501.083 302.602 501.895 303.202 502.91C303.802 504.027 304.002 505.245 303.702 506.361C303.402 507.579 302.602 508.595 301.602 509.204C301.002 509.711 300.202 509.914 299.402 509.914ZM299.402 503.113C299.002 503.113 298.601 503.215 298.301 503.418C297.801 503.722 297.401 504.23 297.301 504.737C297.101 505.346 297.202 505.955 297.502 506.463C297.802 506.97 298.301 507.376 298.801 507.478C299.401 507.681 300.002 507.579 300.502 507.275C301.002 506.97 301.402 506.463 301.502 505.955C301.702 505.346 301.601 504.737 301.301 504.23C301.001 503.722 300.502 503.316 300.002 503.215C299.802 503.113 299.602 503.113 299.402 503.113Z" fill="white"/>
<path d="M285.5 468.906C279.4 468.906 274.5 473.88 274.5 480.071C274.5 486.263 279.4 491.237 285.5 491.237C291.6 491.237 296.5 486.263 296.5 480.071C296.5 473.88 291.6 468.906 285.5 468.906ZM286 482.711C284.5 483.015 283.1 482 282.8 480.579C282.5 479.056 283.5 477.635 284.9 477.331C285.2 477.229 285.6 477.229 285.9 477.331V477.432C286.1 478.549 287 479.361 288.1 479.564C288.4 480.985 287.5 482.406 286 482.711Z" fill="white"/>
<path d="M234.5 468.906C228.4 468.906 223.5 473.88 223.5 480.071C223.5 486.263 228.4 491.237 234.5 491.237C240.6 491.237 245.5 486.263 245.5 480.071C245.5 473.88 240.6 468.906 234.5 468.906ZM235 482.711C233.5 483.015 232.1 482 231.8 480.579C231.5 479.056 232.5 477.635 233.9 477.331C234.2 477.229 234.6 477.229 234.9 477.331V477.432C235.1 478.549 236 479.361 237.1 479.564C237.4 480.985 236.5 482.406 235 482.711Z" fill="white"/>
<path d="M259.9 450.838C255.5 450.838 252 454.188 252 458.451C252 462.613 255.6 466.064 259.9 466.064C264.3 466.064 267.8 462.714 267.8 458.451C267.8 454.188 264.3 450.838 259.9 450.838ZM259.9 464.338C259.4 464.338 258.6 463.425 258.2 461.902C258.7 461.902 259.3 462.004 259.8 462.004C260.4 462.004 261 462.004 261.6 461.902C261.2 463.425 260.5 464.338 259.9 464.338ZM259.8 460.379C259.1 460.379 258.4 460.379 257.8 460.278C257.7 459.669 257.7 459.06 257.7 458.349C257.7 457.639 257.7 457.03 257.8 456.421C258.4 456.319 259.1 456.319 259.8 456.319C260.6 456.319 261.3 456.421 261.9 456.421C262 457.03 262 457.639 262 458.248C262 458.958 262 459.567 261.9 460.075C261.3 460.278 260.6 460.379 259.8 460.379ZM253.7 458.349C253.7 457.842 254.7 457.233 256.3 456.725C256.3 457.233 256.2 457.74 256.2 458.349C256.2 458.857 256.2 459.466 256.3 459.973C254.7 459.567 253.7 458.857 253.7 458.349ZM259.9 452.36C260.5 452.36 261.2 453.274 261.6 454.797C261 454.695 260.4 454.695 259.8 454.695C259.3 454.695 258.7 454.695 258.2 454.797C258.7 453.274 259.4 452.36 259.9 452.36ZM263.6 456.827C265.1 457.233 266 457.842 266 458.349C266 458.857 265.1 459.466 263.6 459.872C263.6 459.364 263.7 458.857 263.7 458.349C263.7 457.842 263.6 457.334 263.6 456.827ZM265.8 456.015C265.1 455.609 264.3 455.406 263.4 455.203C263.2 454.391 263 453.579 262.6 452.97C264 453.579 265.1 454.594 265.8 456.015ZM257.3 452.868C257 453.477 256.7 454.188 256.5 455C255.6 455.203 254.8 455.406 254.1 455.812C254.8 454.594 255.9 453.477 257.3 452.868ZM254.2 460.887C254.9 461.191 255.7 461.496 256.6 461.699C256.8 462.511 257 463.222 257.4 463.831C255.9 463.222 254.8 462.207 254.2 460.887ZM262.6 463.831C262.9 463.222 263.2 462.41 263.4 461.597C264.3 461.394 265.2 461.09 265.8 460.785C265.1 462.105 264 463.222 262.6 463.831Z" fill="white"/>
<path d="M258.001 503.113C257.601 503.113 257.201 502.809 257.201 502.301V498.647C257.201 498.241 257.501 497.835 258.001 497.835C258.401 497.835 258.801 498.139 258.801 498.647V502.301C258.801 502.809 258.401 503.113 258.001 503.113Z" fill="white"/>
<path d="M262.001 503.113C261.601 503.113 261.201 502.809 261.201 502.301V498.647C261.201 498.241 261.501 497.835 262.001 497.835C262.401 497.835 262.801 498.139 262.801 498.647V502.301C262.801 502.809 262.401 503.113 262.001 503.113Z" fill="white"/>
<path d="M273.3 516.106C273 516.106 272.8 516.005 272.6 515.802L269.6 511.234C269.4 510.828 269.5 510.422 269.8 510.117C270.2 509.914 270.6 510.016 270.9 510.32L273.9 514.888C274.1 515.294 274 515.7 273.7 516.005C273.6 516.106 273.5 516.106 273.3 516.106Z" fill="white"/>
<path d="M275.001 509.407C274.701 509.407 274.501 509.305 274.301 509.102L273.401 507.681C273.201 507.275 273.301 506.869 273.601 506.565C274.001 506.362 274.401 506.463 274.701 506.768L275.601 508.189C275.801 508.595 275.701 509.001 275.401 509.305C275.301 509.305 275.101 509.407 275.001 509.407Z" fill="white"/>
<path d="M282.001 512.249C281.701 512.249 281.501 512.147 281.301 511.944L278.001 506.97C277.801 506.564 277.901 506.158 278.201 505.854C278.601 505.651 279.001 505.752 279.301 506.057L282.601 511.03C282.801 511.436 282.701 511.843 282.401 512.147C282.301 512.249 282.101 512.249 282.001 512.249Z" fill="white"/>
<path d="M246.7 516.106C246.6 516.106 246.4 516.106 246.3 516.004C245.9 515.801 245.8 515.294 246.1 514.888L249.1 510.32C249.3 509.914 249.8 509.812 250.2 510.117C250.6 510.32 250.7 510.828 250.4 511.234L247.4 515.801C247.2 516.004 246.9 516.106 246.7 516.106Z" fill="white"/>
<path d="M245.001 509.406C244.901 509.406 244.701 509.406 244.601 509.305C244.201 509.102 244.101 508.594 244.401 508.188L245.301 506.767C245.501 506.361 246.001 506.26 246.401 506.564C246.801 506.767 246.901 507.275 246.601 507.681L245.701 509.102C245.501 509.305 245.301 509.406 245.001 509.406Z" fill="white"/>
<path d="M238.001 512.249C237.901 512.249 237.701 512.249 237.601 512.147C237.201 511.944 237.101 511.437 237.401 511.031L240.701 506.057C240.901 505.651 241.401 505.549 241.801 505.854C242.201 506.057 242.301 506.564 242.001 506.97L238.701 511.944C238.501 512.147 238.301 512.249 238.001 512.249Z" fill="white"/>
<path d="M234.002 496.109C225.302 496.109 218.102 488.902 218.102 479.97C218.102 471.139 225.202 463.831 234.002 463.831C242.802 463.831 249.902 471.037 249.902 479.97C249.902 488.902 242.802 496.109 234.002 496.109ZM234.002 465.556C226.102 465.556 219.702 472.053 219.702 480.071C219.702 488.09 226.102 494.587 234.002 494.587C241.902 494.587 248.302 488.09 248.302 480.071C248.302 472.053 241.902 465.556 234.002 465.556Z" fill="white"/>
<path d="M285.002 496.109C276.302 496.109 269.102 488.902 269.102 479.97C269.102 471.139 276.202 463.831 285.002 463.831C293.702 463.831 300.902 471.037 300.902 479.97C300.902 488.902 293.802 496.109 285.002 496.109ZM285.002 465.556C277.102 465.556 270.702 472.053 270.702 480.071C270.702 488.09 277.102 494.587 285.002 494.587C292.902 494.587 299.302 488.09 299.302 480.071C299.302 472.053 292.902 465.556 285.002 465.556Z" fill="white"/>
<path d="M271.2 460.684C270.8 460.684 270.5 460.379 270.4 459.973C270.3 459.567 270.6 459.161 271 459.059C271.1 459.059 276.9 458.044 281.6 452.969C281.9 452.665 282.4 452.665 282.7 452.969C283 453.274 283 453.781 282.7 454.086C277.6 459.567 271.5 460.582 271.2 460.582C271.2 460.684 271.2 460.684 271.2 460.684Z" fill="white"/>
<path d="M272.101 456.522C271.701 456.522 271.401 456.217 271.301 455.811C271.201 455.405 271.501 454.999 271.901 454.898C271.901 454.898 274.601 454.39 276.901 452.056C277.201 451.751 277.701 451.751 278.001 452.056C278.301 452.36 278.301 452.868 278.001 453.172C275.401 455.913 272.301 456.522 272.101 456.522Z" fill="white"/>
<path d="M272.999 452.462C272.899 452.462 272.799 452.461 272.699 452.36C272.599 452.36 272.499 452.258 272.399 452.157C272.299 452.055 272.199 451.852 272.199 451.548C272.199 451.345 272.299 451.142 272.399 451.04C272.699 450.736 273.199 450.736 273.499 451.04C273.599 451.142 273.699 451.345 273.699 451.548C273.699 451.649 273.699 451.751 273.599 451.852C273.599 451.954 273.499 452.055 273.399 452.157C273.299 452.258 273.199 452.258 273.199 452.36C273.199 452.461 273.099 452.462 272.999 452.462Z" fill="white"/>
<path d="M248.7 460.684H248.6C248.3 460.684 242.2 459.567 237.1 454.187C236.8 453.883 236.8 453.375 237.1 453.071C237.4 452.766 237.9 452.766 238.2 453.071C243 458.146 248.7 459.161 248.8 459.161C249.2 459.263 249.5 459.669 249.4 460.075C249.4 460.379 249.1 460.684 248.7 460.684Z" fill="white"/>
<path d="M247.799 456.522H247.699C247.599 456.522 244.399 456.014 241.799 453.172C241.499 452.868 241.499 452.36 241.799 452.056C242.099 451.751 242.599 451.751 242.899 452.056C245.099 454.492 247.799 454.898 247.899 454.898C248.299 454.999 248.599 455.405 248.499 455.811C248.499 456.217 248.099 456.522 247.799 456.522Z" fill="white"/>
<path d="M246.8 452.462C246.7 452.462 246.6 452.461 246.5 452.36C246.4 452.36 246.3 452.258 246.2 452.157C246.1 452.055 246 451.852 246 451.548C246 451.345 246.1 451.142 246.2 451.04C246.5 450.736 247 450.736 247.3 451.04C247.4 451.142 247.5 451.345 247.5 451.548C247.5 451.649 247.5 451.751 247.4 451.852C247.4 451.954 247.3 452.055 247.2 452.157C247.1 452.258 247 452.258 247 452.36C247 452.461 246.9 452.462 246.8 452.462Z" fill="white"/>
<path d="M221.302 509.914C220.902 509.914 220.502 509.813 220.102 509.711C218.902 509.407 217.902 508.595 217.302 507.579C216.702 506.463 216.502 505.245 216.802 504.128C217.102 503.012 217.902 501.895 218.902 501.286C220.002 500.677 221.202 500.474 222.302 500.779C223.502 501.083 224.502 501.895 225.102 502.91C225.702 504.027 225.902 505.245 225.602 506.361C225.302 507.579 224.502 508.595 223.502 509.204C222.902 509.711 222.102 509.914 221.302 509.914ZM221.302 503.113C220.902 503.113 220.502 503.215 220.202 503.418C219.702 503.722 219.302 504.23 219.202 504.737C219.002 505.346 219.102 505.955 219.402 506.463C219.702 506.97 220.202 507.376 220.702 507.478C221.302 507.681 221.902 507.579 222.402 507.275C222.902 506.97 223.302 506.463 223.402 505.955C223.602 505.346 223.502 504.737 223.202 504.23C222.902 503.722 222.402 503.316 221.902 503.215C221.702 503.113 221.502 503.113 221.302 503.113Z" fill="white"/>
<path d="M299.401 509.914C299.001 509.914 298.601 509.813 298.201 509.711C298.001 509.711 297.901 509.609 297.701 509.508C297.801 509.914 297.801 510.219 297.801 510.625C295.901 510.523 292.901 510.219 291.601 509.203C291.201 508.899 290.601 508.899 290.201 509.203C289.801 509.508 289.601 510.117 289.801 510.523C290.301 511.944 290.801 513.568 291.001 514.685C288.901 514.38 287.001 513.974 286.501 513.568C286.301 513.061 285.801 512.756 285.301 512.858C284.701 512.959 284.301 513.467 284.301 514.076C284.301 515.7 284.101 517.425 283.901 518.339L280.901 517.121C280.501 517.019 280.101 517.019 279.801 517.222C279.501 517.425 279.301 517.831 279.301 518.237C279.301 519.76 279.101 521.486 278.801 522.095C277.701 522.095 275.501 521.79 274.801 520.572C274.501 520.065 273.801 519.862 273.301 520.166C272.801 520.471 272.501 521.08 272.701 521.689C272.701 521.79 273.501 523.82 272.401 525.647C270.901 525.14 269.301 524.531 268.901 524.328C268.501 523.82 267.901 523.719 267.501 523.922C266.601 524.328 266.801 525.241 267.001 525.952C267.401 527.677 267.501 528.591 267.401 529.099C266.001 528.896 264.601 528.388 264.301 527.881C263.801 526.967 263.201 526.967 262.801 526.967C261.901 527.17 261.801 528.084 261.701 528.896C261.601 530.114 261.401 532.245 260.001 533.768C258.601 532.347 258.401 530.114 258.301 528.896C258.201 528.084 258.101 527.17 257.201 526.967C256.801 526.865 256.201 526.967 255.701 527.881C255.401 528.388 254.001 528.896 252.601 529.099C252.501 528.693 252.601 527.779 253.001 525.952C253.201 525.241 253.401 524.328 252.501 523.922C252.101 523.719 251.501 523.82 251.101 524.328C250.701 524.632 249.101 525.241 247.601 525.647C246.601 523.922 247.301 521.79 247.301 521.689C247.501 521.08 247.301 520.471 246.701 520.166C246.201 519.862 245.501 520.065 245.201 520.572C244.501 521.79 242.301 522.095 241.201 522.095C240.901 521.486 240.701 519.76 240.701 518.237C240.701 517.831 240.501 517.425 240.201 517.222C239.901 517.019 239.501 516.918 239.101 517.121L236.101 518.339C235.901 517.425 235.701 515.7 235.701 514.076C235.701 513.467 235.301 512.959 234.701 512.858C234.201 512.756 233.701 513.061 233.501 513.568C233.001 513.974 231.101 514.38 229.001 514.685C229.201 513.568 229.701 511.944 230.201 510.523C230.401 510.016 230.201 509.508 229.801 509.203C229.401 508.899 228.801 508.899 228.401 509.203C227.101 510.219 224.101 510.523 222.201 510.625C222.201 510.32 222.301 510.016 222.301 509.711C222.001 509.813 221.701 509.813 221.401 509.813C221.001 509.813 220.601 509.711 220.201 509.61C220.101 509.61 220.001 509.508 219.901 509.508C219.801 510.422 219.801 511.335 219.901 511.944C220.001 512.452 220.501 512.858 221.001 512.858C221.501 512.858 224.501 512.959 227.101 512.249C226.701 513.873 226.301 515.497 226.501 516.309C226.601 516.816 227.201 517.222 227.701 517.222C230.101 517.019 232.001 516.715 233.301 516.207C233.501 518.745 234.001 520.268 234.901 520.775C235.201 520.978 235.601 520.978 236.001 520.877L238.401 519.862C238.701 524.125 240.101 524.328 240.601 524.328H240.701C241.001 524.328 242.901 524.429 244.701 523.617C244.801 524.835 245.201 526.256 246.201 527.474C246.501 527.779 247.001 527.982 247.401 527.881C248.601 527.475 249.601 527.17 250.301 526.865C250.101 528.287 250.101 529.911 251.101 530.824C251.301 531.027 251.701 531.129 252.001 531.129C252.501 531.129 254.601 530.824 256.201 530.012C256.501 531.738 257.201 534.275 259.401 535.798L259.501 535.899C259.601 535.899 259.701 536.001 259.701 536.001C259.801 536.001 259.901 536.001 259.901 536.001C260.001 536.001 260.101 536.001 260.101 536.001C260.101 536.001 260.101 536.001 260.201 536.001C260.301 536.001 260.401 536.001 260.401 535.899C260.401 535.899 260.501 535.899 260.501 535.798C262.701 534.174 263.401 531.738 263.701 530.012C265.301 530.824 267.301 531.129 267.901 531.129C268.201 531.129 268.601 531.027 268.801 530.824C269.801 529.911 269.801 528.287 269.601 526.865C270.301 527.17 271.301 527.475 272.501 527.881C272.901 527.982 273.401 527.88 273.701 527.474C274.801 526.256 275.201 524.835 275.201 523.617C277.001 524.328 278.901 524.328 279.201 524.328H279.301C279.801 524.226 281.201 524.125 281.501 519.862L283.901 520.877C284.201 520.978 284.601 520.978 285.001 520.775C285.901 520.268 286.401 518.745 286.601 516.207C287.901 516.715 289.801 517.019 292.201 517.222C292.801 517.222 293.301 516.918 293.401 516.309C293.601 515.497 293.301 513.873 292.801 512.249C295.401 512.959 298.501 512.959 298.901 512.858C299.401 512.858 299.901 512.452 300.001 511.944C300.101 511.335 300.101 510.523 300.001 509.61C299.901 509.914 299.601 509.914 299.401 509.914Z" fill="white"/>
<path d="M322.401 424.954C322.301 424.548 321.901 424.142 321.501 424.04C320.601 423.837 298.601 419.371 284.901 435.409C284.801 435.51 284.301 436.119 283.601 437.033C277.601 434.089 271.001 432.262 264.301 431.755C264.501 432.465 264.401 433.176 264.301 433.988C264.301 434.089 264.301 434.089 264.201 434.191C270.501 434.698 276.601 436.424 282.301 439.165C280.801 441.499 279.401 444.747 279.601 447.691C279.701 448.3 280.201 448.808 280.901 448.808C281.501 448.706 282.001 448.199 282.001 447.488C281.601 443.022 286.701 437.236 286.801 437.134C297.201 424.954 313.101 425.461 319.001 426.172C316.101 429.522 312.001 436.119 306.801 445.661C302.101 454.187 295.501 458.146 294.501 458.654L276.401 462.409C276.101 462.511 275.701 462.511 275.401 462.612C275.201 462.612 275.101 462.714 274.901 462.714C274.801 462.714 274.601 462.815 274.501 462.815C274.301 462.917 274.001 462.917 273.801 463.018C273.701 463.018 273.701 463.018 273.601 463.12C269.101 464.744 265.301 467.688 262.701 471.849C262.701 471.849 262.601 471.951 262.601 472.052C261.601 473.575 260.901 475.199 260.301 476.823C259.701 475.098 258.901 473.473 258.001 472.052C258.001 471.951 257.901 471.951 257.901 471.849C255.301 467.789 251.401 464.744 247.001 463.12C246.901 463.12 246.901 463.12 246.801 463.018C246.601 462.917 246.401 462.815 246.101 462.815C246.001 462.815 245.801 462.714 245.701 462.714C245.501 462.714 245.401 462.612 245.201 462.612C244.901 462.511 244.501 462.409 244.201 462.409L226.201 458.654H226.101H226.001C225.001 458.146 218.401 454.187 213.701 445.661C208.501 436.119 204.401 429.522 201.501 426.172C207.301 425.461 223.301 424.954 233.701 437.134C235.101 438.759 238.801 443.732 238.401 447.387C238.301 447.996 238.801 448.605 239.501 448.706C240.101 448.706 240.701 448.3 240.801 447.59C241.101 444.646 239.601 441.499 238.101 439.063C243.601 436.424 249.701 434.698 255.901 434.191C255.701 433.379 255.601 432.567 255.801 431.856C249.201 432.465 242.701 434.191 236.801 437.134C236.101 436.221 235.601 435.612 235.501 435.51C221.701 419.371 199.801 423.939 198.901 424.142C198.501 424.243 198.101 424.548 198.001 425.055C197.901 425.461 198.001 425.969 198.401 426.273C200.201 427.796 204.101 432.567 211.801 446.778C212.601 448.3 213.501 449.62 214.301 450.838C214.301 450.838 214.301 450.838 214.201 450.939C213.901 451.345 213.201 452.157 212.401 453.071C208.401 457.74 204.901 462.003 204.401 463.83C204.301 464.338 204.501 464.947 205.001 465.15L207.501 466.47C206.301 468.703 204.201 472.661 204.101 474.184C204.101 474.692 204.401 475.199 204.901 475.402C205.001 475.402 205.801 475.605 206.701 475.707C205.101 478.752 203.401 482.304 203.401 483.523C203.401 484.132 203.801 484.639 204.401 484.741C204.501 484.741 206.201 484.944 207.801 484.132C208.801 487.684 211.701 496.211 217.901 503.012C218.301 502.403 218.801 501.895 219.401 501.591C219.501 501.591 219.601 501.489 219.601 501.489C212.201 493.267 209.701 482.101 209.601 482C209.501 481.594 209.201 481.188 208.801 481.086C208.401 480.985 207.901 481.086 207.601 481.391C207.201 481.898 206.601 482.101 206.101 482.203C206.901 480.376 208.501 477.229 209.901 474.489C210.201 473.981 210.101 473.372 209.601 472.966C209.201 472.56 208.601 472.56 208.101 472.966C207.701 473.27 207.101 473.372 206.601 473.372C207.201 471.849 208.701 469.007 210.001 466.673C210.201 466.368 210.201 466.064 210.101 465.759C210.001 465.455 209.801 465.15 209.501 465.049L207.001 463.729C208.301 461.597 212.301 456.928 214.101 454.695C214.701 453.984 215.301 453.375 215.601 452.868C217.801 455.507 219.901 457.436 221.601 458.755C215.201 463.221 211.401 470.53 211.401 478.447C211.401 491.643 222.001 502.403 235.001 502.403C247.401 502.403 257.701 492.557 258.601 480.173C258.801 481.391 259.001 482.609 259.001 483.827C258.901 491.135 251.301 497.733 251.301 497.733C250.901 498.038 250.801 498.647 251.001 499.053L259.101 519.862C259.301 520.369 259.801 520.674 260.301 520.572H260.401C260.901 520.572 261.301 520.268 261.501 519.862L269.601 499.053C269.801 498.545 269.601 498.038 269.301 497.733C269.201 497.632 261.601 491.135 261.601 483.827C261.601 482.609 261.701 481.391 262.001 480.173C262.901 492.557 273.101 502.403 285.601 502.403C298.601 502.403 309.201 491.643 309.201 478.447C309.201 470.53 305.401 463.221 299.001 458.755C300.701 457.436 302.901 455.507 305.001 452.868C305.401 453.274 305.901 453.984 306.501 454.695C308.301 456.827 312.301 461.496 313.601 463.729L311.101 465.049C310.801 465.15 310.601 465.455 310.501 465.759C310.401 466.064 310.501 466.368 310.601 466.673C311.901 469.007 313.401 471.849 314.001 473.372C313.501 473.372 312.901 473.27 312.501 472.966C312.101 472.661 311.401 472.661 311.001 472.966C310.601 473.372 310.501 473.981 310.701 474.489C312.201 477.229 313.801 480.477 314.501 482.203C314.001 482.101 313.401 481.797 313.001 481.391C312.701 481.086 312.301 480.985 311.801 481.086C311.401 481.188 311.101 481.492 311.001 482C311.001 482.101 308.401 493.064 301.201 501.286C302.001 501.591 302.601 501.997 303.101 502.707C309.001 496.008 311.801 487.786 312.801 484.335C314.401 485.147 316.101 484.944 316.201 484.944C316.801 484.842 317.201 484.335 317.201 483.726C317.201 482.609 315.501 478.955 313.901 475.91C314.801 475.91 315.501 475.707 315.701 475.605C316.201 475.402 316.601 474.996 316.501 474.387C316.401 472.864 314.301 468.906 313.101 466.673L315.601 465.353C316.101 465.049 316.301 464.541 316.201 464.033C315.701 462.206 312.101 457.943 308.201 453.274C307.401 452.36 306.801 451.65 306.401 451.142C306.401 451.142 306.401 451.142 306.301 451.041C307.201 449.823 308.001 448.503 308.801 446.981C316.501 432.77 320.401 427.999 322.201 426.476C322.401 425.867 322.501 425.36 322.401 424.954ZM234.901 499.865C223.201 499.865 213.601 490.12 213.601 478.244C213.601 471.037 217.101 464.338 223.001 460.278C223.801 460.481 224.401 460.684 225.101 460.785L225.401 460.887C225.401 460.887 225.401 460.887 225.501 460.887L243.501 464.643C243.801 464.744 244.101 464.744 244.401 464.846C244.501 464.846 244.701 464.947 244.801 464.947C244.901 464.947 245.101 465.049 245.201 465.049C245.401 465.15 245.601 465.15 245.801 465.252C245.901 465.252 245.901 465.252 246.001 465.353C246.201 465.455 246.501 465.556 246.701 465.658C250.401 467.18 253.501 469.718 255.601 472.966C256.001 474.692 256.201 476.417 256.201 478.244C256.201 490.12 246.601 499.865 234.901 499.865ZM266.801 498.85L260.001 516.309L253.201 498.85C254.601 497.53 258.101 493.876 260.001 489.308C261.801 493.978 265.301 497.53 266.801 498.85ZM306.401 478.244C306.401 490.12 296.801 499.865 285.101 499.865C273.401 499.865 263.801 490.12 263.801 478.244C263.801 476.519 264.001 474.692 264.401 472.966C266.501 469.718 269.601 467.079 273.301 465.658C273.501 465.556 273.801 465.455 274.001 465.353C274.101 465.353 274.101 465.353 274.201 465.252C274.401 465.15 274.601 465.15 274.801 465.049C274.901 465.049 275.101 464.947 275.201 464.947C275.301 464.947 275.501 464.846 275.601 464.846C275.901 464.744 276.201 464.744 276.501 464.643L294.501 460.887C294.501 460.887 294.501 460.887 294.601 460.887H294.801C295.501 460.785 296.201 460.582 296.901 460.379C302.901 464.338 306.401 471.037 306.401 478.244Z" fill="white"/>
<path d="M259.902 437.337C259.502 437.337 259.102 437.236 258.702 437.134C257.502 436.83 256.502 436.018 255.902 435.003C255.302 433.886 255.102 432.668 255.402 431.552C255.702 430.334 256.502 429.318 257.502 428.709C258.602 428.1 259.802 427.897 260.902 428.202C262.102 428.506 263.102 429.318 263.702 430.334C264.302 431.45 264.502 432.668 264.202 433.785C263.902 434.901 263.102 436.018 262.102 436.627C261.402 437.134 260.602 437.337 259.902 437.337ZM259.801 430.537C259.401 430.537 259.002 430.638 258.702 430.841C258.202 431.146 257.802 431.653 257.702 432.161C257.502 432.77 257.602 433.379 257.902 433.886C258.502 435.003 259.902 435.307 260.902 434.698C261.402 434.394 261.802 433.886 261.902 433.379C262.102 432.77 262.002 432.161 261.702 431.653C261.402 431.146 260.902 430.74 260.402 430.638C260.202 430.537 260.001 430.537 259.801 430.537Z" fill="white"/>
<path fill-rule="evenodd" clip-rule="evenodd" d="M166.5 159.313C166.5 165.81 167 172.205 167.9 178.599L169.9 192.303C168.1 192.607 166.4 192.81 164.5 192.81C162.6 192.81 160.9 192.607 159.1 192.303L161.1 178.599C162 172.205 162.5 165.81 162.5 159.313V130.486C163.2 130.486 163.9 130.384 164.6 130.384C165.3 130.384 166 130.384 166.7 130.486V159.313H166.5ZM145.8 186.517L153.8 170.682C154.4 169.464 154.7 168.144 154.7 166.825V132.008C142.5 136.17 133.6 147.843 133.6 161.648C133.7 171.799 138.5 180.833 145.8 186.517ZM174.2 166.825C174.2 168.144 174.5 169.464 175.1 170.682L183.1 186.517C190.5 180.833 195.2 171.799 195.2 161.648C195.2 147.843 186.4 136.17 174.1 132.008V166.825H174.2Z" fill="white"/>
<path d="M385 151.498V150.787H388.4V151.498H385ZM386.3 155.253V151.295H387V155.253H386.3ZM389.1 155.253V150.889H389.8V155.253H389.1ZM391.2 155.253L389.3 150.889H390.1L391.4 154.137L392.7 150.889H393.5L391.6 155.253H391.2ZM392.9 155.253V150.889H393.6V155.253H392.9Z" fill="white"/>
<path d="M230.5 142.565C219 142.565 210.6 150.888 210.6 162.46V162.866C210.6 174.539 218.8 182.761 230.5 182.761C242.2 182.761 250.3 174.539 250.3 162.765V162.359C250.3 150.685 242.1 142.565 230.5 142.565ZM218.7 162.46C218.7 154.137 223.2 148.96 230.5 148.96C237.8 148.96 242.2 154.238 242.2 162.46V162.866C242.2 171.088 237.6 176.468 230.6 176.468C223.6 176.468 218.7 170.885 218.7 162.968V162.46Z" fill="white"/>
<path d="M286.399 141.042C285.099 140.636 284.099 140.535 282.499 140.535C276.299 140.535 272.699 144.087 272.699 150.381V153.527H261.899V150.076C261.899 146.93 263.799 146.219 265.299 146.219C266.499 146.219 267.499 146.524 268.099 146.727C268.199 146.727 268.299 146.727 268.399 146.727C268.499 146.625 268.499 146.625 268.499 146.524V141.448C268.499 141.347 268.399 141.245 268.299 141.144C266.999 140.738 265.999 140.636 264.499 140.636C258.199 140.636 254.699 144.087 254.699 150.482V182.05C254.699 182.254 254.799 182.355 254.999 182.355H261.499C261.699 182.355 261.799 182.254 261.799 182.05V158.907H272.599V181.847C272.599 182.051 272.699 182.152 272.899 182.152H279.399C279.599 182.152 279.699 182.051 279.699 181.847V158.907H285.799C285.999 158.907 286.099 158.806 286.099 158.603V153.73C286.099 153.527 285.999 153.426 285.799 153.426H279.699V150.076C279.699 146.93 281.599 146.219 283.099 146.219C284.399 146.219 285.399 146.524 285.999 146.727C286.099 146.727 286.199 146.727 286.299 146.727C286.399 146.727 286.399 146.625 286.399 146.524V141.448C286.599 141.245 286.599 141.144 286.399 141.042Z" fill="white"/>
<path d="M305.7 158.704C299.1 157.791 297.9 156.268 297.9 153.324C297.9 150.381 300.3 148.554 304.3 148.554C308.7 148.554 310.8 150.178 311.5 154.035C311.5 154.137 311.6 154.238 311.8 154.238H318.4C318.5 154.238 318.6 154.238 318.6 154.137C318.7 154.035 318.7 154.035 318.7 153.934C317.9 146.422 313 142.463 304.3 142.463C296.2 142.463 290.5 147.133 290.5 153.832C290.5 160.531 294.4 164.084 304.4 165.404C311.1 166.52 312.2 168.043 312.2 170.986C312.2 174.336 309.4 176.569 305.2 176.569C298.7 176.569 297.3 173.321 296.9 169.768C296.9 169.667 296.8 169.464 296.6 169.464H289.7C289.6 169.464 289.5 169.464 289.5 169.565C289.5 169.667 289.4 169.667 289.4 169.768C289.8 175.554 292.9 182.558 305.2 182.558C313.6 182.558 319.7 177.381 319.7 170.377C319.8 162.358 314.4 159.922 305.7 158.704Z" fill="white"/>
<path d="M347.599 156.268C345.199 154.035 341.899 152.817 338.099 152.817C329.599 152.817 323.699 158.907 323.699 167.637V168.043C323.699 176.772 329.599 182.66 338.299 182.66C345.799 182.66 350.699 179.208 351.599 173.22C351.599 173.118 351.599 173.017 351.499 173.017C351.399 172.915 351.399 172.915 351.299 172.915H344.999C344.899 172.915 344.699 173.017 344.699 173.118C344.199 175.859 342.099 177.178 338.499 177.178C333.999 177.178 331.299 174.438 330.999 169.464H351.399C351.599 169.464 351.699 169.362 351.699 169.159V167.231C351.699 162.561 350.299 158.806 347.599 156.268ZM331.199 164.592C331.899 160.531 334.399 158.197 338.099 158.197C342.099 158.197 344.299 160.328 344.599 164.592H331.199Z" fill="white"/>
<path d="M384.099 171.19C383.999 171.088 383.999 171.088 383.899 171.088H377.899C377.699 171.088 377.599 171.19 377.599 171.393C377.299 174.844 374.699 177.178 371.099 177.178C366.299 177.178 363.599 173.829 363.599 168.144V167.738C363.599 162.257 366.499 158.806 370.999 158.806C374.599 158.806 376.699 160.531 377.199 163.881C377.199 163.983 377.299 164.186 377.499 164.186H383.799C383.899 164.186 383.999 164.186 383.999 164.084C384.099 163.983 384.099 163.983 384.099 163.881C383.399 156.979 378.599 153.02 370.899 153.02C362.399 153.02 356.299 159.313 356.299 167.941V168.347C356.299 177.077 362.199 182.964 370.899 182.964C378.499 182.964 383.799 178.498 384.299 171.596C384.199 171.393 384.199 171.291 384.099 171.19Z" fill="white"/>
<defs>
<linearGradient id="paint0_linear_831_13037" x1="259.999" y1="597.252" x2="259.999" y2="84.2309" gradientUnits="userSpaceOnUse">
<stop stop-color="#BB456A"/>
<stop offset="1" stop-color="#FF456A"/>
</linearGradient>
<linearGradient id="paint1_linear_831_13037" x1="259.999" y1="594.246" x2="259.999" y2="150.312" gradientUnits="userSpaceOnUse">
<stop stop-color="#FF456A"/>
<stop offset="1" stop-color="#BB456A"/>
</linearGradient>
<linearGradient id="paint2_linear_831_13037" x1="260" y1="183.977" x2="260" y2="467.054" gradientUnits="userSpaceOnUse">
<stop stop-color="#FF456A"/>
<stop offset="1" stop-color="#BB456A"/>
</linearGradient>
</defs>
</svg>
